<mxfile host="Electron" agent="Mozilla/5.0 (Windows NT 10.0; Win64; x64) AppleWebKit/537.36 (KHTML, like Gecko) draw.io/27.0.2 Chrome/134.0.6998.205 Electron/35.3.0 Safari/537.36" version="27.0.2">
  <diagram name="Page-1" id="UNFBgXyYSNGovIWBiyTv">
    <mxGraphModel dx="1426" dy="849" grid="1" gridSize="10" guides="1" tooltips="1" connect="1" arrows="1" fold="1" page="1" pageScale="1" pageWidth="1100" pageHeight="850" math="0" shadow="0">
      <root>
        <mxCell id="0" />
        <mxCell id="1" parent="0" />
        <mxCell id="0TGblvGgAYBKJKgvkOkP-1" value="" style="shape=image;verticalLabelPosition=bottom;labelBackgroundColor=default;verticalAlign=top;aspect=fixed;imageAspect=0;image=data:image/png,iVBORw0KGgoAAAANSUhEUgAAAosAAAINCAYAAABWAzXSAAAAAXNSR0IArs4c6QAAAARnQU1BAACxjwv8YQUAAAAJcEhZcwAADsMAAA7DAcdvqGQAAFVlSURBVHhe7d0NcBznfef531CyLTmSIykvsBknAIkBAdpBIsN0boHNGmFoYQUESQhuCNXy7njYQ4y5je8kzCb0GnYRvgLLocvaFCDVne8AL/Z41C53BaZIZIMQPlA0lyobiJYU7AiySQADEvDacujYkmzJZcl6meun++lBz2AaGLxyBvh+XG3N83RPT/dwpuc3/6d7EHn5H55POvT222+7k3c76f7XnZz/GeZ28L8AAAAoPJFIJP2/5n/O7flJ2rZtmzu57Ze+P5E8/5W/dRcGAAAAfHs/ukeRH3zvG8mvXLqsgw/9se0GAADAVnf6yX+rf1LzIW0zQ88AAABApjfefMOERc5BBAAAwEJvvPGmtnHBCgAAALJ5800nLL6dZBgaAAAAC7355ltUFgEAAJDdW2+9pch/u/G3ybFnJnK6Gnr0K3+lyad6tO3HCae1VMiM6O33RFX+sXbV/O4f2j4AAAAUAnM19K7oryry7etjyb/9r88vGRZNUIxcalH1r7xse3Iz9t17lKw9QWAEAAAoICYsRnf+irbZ9pKune/OPSi+6z6pYUR6X63+0faX9c2Rx+wMAAAAFJJtuZ6yuO2V63ojebvevmuH9MAZqfb/kd7xHjs34I5fkhovSu/9bSVvu0M/euvn9fYr/83OBAAAwHro6+vTD37wA9tayMwzyyyHubYl58ria2+/Uy+9eZ9+tuff6I0Xp5z0+A7pA//SzrXu+GUnKH5F+vkyJUea9KPZv9XPku9a5O9J39AFZ6PNhvvThRt2Vhqz3F/q6y85N1/6uv7Sv72ohev+y+Cdcl7PrZK5/Xm0rXn/3AEAsPUcOHBAg3/1V1kDo+kz88wyy5VzWNympO7Y9lNFXv+h3rrng+7FK7p3t53ruLNI+n0nKL6nVMmvHNKrP/qhGxSXdp8+crBNbW3etG+H7Q5z74f0R21/pA/daxqBEJlVcN0P6N7Lp9Xnp9G09eSr+e0/+BHp8oWv69bks4znuSCeOwAAtpZf/MVf1P4//MMFgdEPimaeWWa5cg6L79r2ut5z2yuKPPNJvfHCmN763phU+pBU8XEnKNqK4t073aCoD3xC7/6DIen2O8010XpH5A27lltph/Y5ieu+metO9Ck8937owyp9cUazVPMAAECIzMC42qBo3BZ/5I//9+++8H198NerbFd243/zmH6j6BX99M3b9drNCd323S/rnf/wNemnN6WPPSm9Zz4o6n0f1Y8vPKy3X/yW7rn9ZX3z++/W/Q3/yq4p6GXdePZ7uvODH9D77rRdPjPU+cRf66vPPqsb235Bd77wkl3OVLku6Ec779S3njivGf1UL3zrWT378n368M5gqSvLuu+8Q6/f+KpeuPPD2nmvvx5v/o0LfTr9lLMe5/HS1pW2Hdv0vb/+mr2Pd/8bL39LTz31Pd334Z16Oes67OPc97q+dtpbz8v3fVj3zv6lnvjrr7rL3ti2Ux9Y8ARkbn+wvfCx7w1sp1mneQxvFxY+ftrjpd3vZW9d9j7e+s02XtdLac/zy9467XOXfR0v6et/+YT++quZ2wMAANbTu9/9bv3ar/2aGxKvTU6uOCh+65vjuu/eu3OvLP4s+Q798M1f1GtJL2T89O079fYPvi7948dTQ89+UPzRSEy3vfuXdPc7XtMrb92tt5K3uffJ7kVdPu2fl+cEFLfPCSunL+veB+zQtBMJZ9z+oB3a1/aASv2h2iXHrxe3Y9/8cHXpzLN2yHWp7XhRL923z5m3z9masHUYzj4+K2d7nXkPlGrmfJ8uOGtzl3XaL14et/sd7qWvP6uZ+0pVkgpcwcdO3862gx/RS+eDw/OBx/fGswP7N6NSf6j+AenZ1J389Zt5iz3PIeu4Ma7L9z5g75/D6QUAACAv5RwWb4+8pTsiP3UnM7ScfOe9eqvhgvTz5QuC4rt+ba/uqn1Ur//qP9ObTsg0QTNc8LxCL3TppZedoPIRVdmA4Q7BejfXwH267x57M+jGBRtYTbXSWnI77lPpfHrLvg6Xs4/7PiR3yR073eCVup/bfkkvp4Jd0HyQPn35Xj3wR3YdrsA6zHY6a9npB7J7P6QPl76oF1O/dBR4/OA8936BsH5+Ri+m7pSxb2HC1nGP8zzPnE+/qAgAAKy74NBzcEh6pXIOi+a8w/fc/oo7maHln/vNP5be+KneGvlneuPePXpj29360f/Xptve+XN6531Rvfq1Tr1+fdi9b8T9/zzw0qxmXrxX92RmIDOMel56wA2sB/WR+2z/cqzFOhbIEqRXLTOYltptttOKSoBZ1uFeBGOqsV6Azn6VOwAAWEuZ5yhmnsO4EjmHxZTI7XpHxf+od/7o7/TWf67VK7Nf08v/9XG9fPYP9MaNv9E7pv+tXjrzB/rp33m/4+NWI7e95t7O2b336N4XL2vcBgx3CNa7uQr+UG2W0PXyi3rxvvvkFhzdQOn2Lm87wtaxEcx2Olt23Q9kTnB9diZQadSLmvGvjHG3zc6z95sfel6BJdZx74f+SAed5PxS9tIpAABYI2EXs6w2MC4jLNr6oPltxdt/Trf/cpXeeP8f6vaqf613lTbqHffs0M9Xf0pvfuARbfvlPbr7dx/TXe/9gO6+7ZX5+2YVGMJ0Jm/Ycof22XP73KqUSp3/ZbNDO0vt/bOWroLrflb3HQw5d25HlT6iyzptlrvwou5NVQVz3Q5H6Do2gnel90t2O/vccwiDofg+J/TaIfK0wOzdz3mS7HNktj3b87jY8xyyjtSQvDeE/mF+ZwcAgHV15syZBUHR5wdGs8xyReZmxpLPXF76b0P/u47f0f+845L0G3+m5BuvKFl6SK/83f+rd0X/QG/+8Ft619+P6M2Kf6lXvtKu295TrPf81iNKfvvLenXqP+vst39DrZ//L3ZNBcwMNZ9+UR9esyHhjXBDF9ygzO8iAgCA3Jm/DV26Y3vulcWKB+Ia++49Sn7r/9Jrd0b1+o++q5/9t4t68zv/RXe+U/rxyy+6v79452983P1NxuRPvqdXf/BtXf7u3dpdF7drKWw3xi/PDzUDAABsATlXFo3Rr/yVrp5/XG/++NupP+FnLnx5W7fpraSXO82A87u2vabXk3cqcvcO/XrdJ1Tzu3/ozis85rcCT+ty6vxDcyFHIVUVDSqLAABg+fzK4rLCIgAAALaGZQ9DAwAAYOshLAIAACAUYREAAAChCIsAAAAIRVgEAABAKMIiAAAAQhEWAQAAECr1O4t1Dx60XQAAANjqRoZPq3Qnv7MIAACARRAWAQAAEIqwCAAAgFCERQAAAIQiLAIAACAUYREAAAChCIsAAAAIRVgEAABAKMIiAAAAQhEWAQAAEGpFf+7v5s2b9lbhKioqsrcAAACQyf9zfysOi7t27bKtwjM1NUVYBAAAWMSWD4vYvPgiAADA6lFZJFBkZf5tC/m5KfTtBwAgX/hhkQtcAAAAEIqwCAAAgFCERQAAAIRa/7CY6FFNJKJIYIoN23mLMfer6VHCNgEAALDxNqayWN2t6WRSSTNNd2uiIcfAeKtd/6IeuOce3ZOa2nXeztowZhse+KKuZ97OF9m2KdftzPd9AwAAt2AYOtquURMYj3lVw0RPTaDqWKMet5SYUM/huMbG4ipz+muczuzLbYCP/LnGX35ZL5vptHTwVgaanX+i8+f/RDttM2/lup2Fsj8AAGxht+acxWi5KseuatrcbB/1Ko5mOlep+KOm5BhV+8luVduK5Gh7NGS5DfbA76nl8pRmbBXsi+2BaqPpy6xAusu1q/0Bv/8etfulybTlH9AXTQJdsN7r+mLs07p8+dOqcpZ74Nix9Epc5v3d7gdsnzPdqmBr9+N6xv63n3f2J3U7sFzmfjo7kxf7AQAA8uACl+A5jQ190sRk9vMUc11uHV3/4hd04iO7VGoaTrCZ+j1TcezRA06sa6/6tD542qtAjv/5N3XQT4WXv6ldvX5lskUnDpoQaJaf0if9iuV4k87GbCBKW+9O/Unvn+sjtrp5/r//BXeVCru/E75in/6gTtv+0x90gq29xy3j77+77zHJv/2FYADM2M8Hv5x/+wEAwBZ1a8JiYlIT1btVZgJg2YCap23FcLpb1XaRNLkutx5stctUuKrONmncHzZ1gs3DD7hLOClyWt8MtHc+2KSPnPgbJ9I5PtKkB/1xVlOZ1Dc1fclZXid00K+cOUHzsqlYmmWC6w1jHi/b/XeW6YNuv1fZfKDHBM5bzN//0l1OGAzcdmeGyMf9AABgi7oFYXFYsbK4Ko+2K2qa1c1qdG84mXBoQGPeTY8dqnYtttx6stUut4K3lufXBdfrTssMRFnv/4B63Nu/p79xg6QdDi84m2U/AAAofBsTFu2FKt7FKce0ezqp3nqnP9quo5Xz8w5frZyvGJp5bX1qcPprhhrDl8sHphJ2+dN63Caa618+q8stv7cw/J3/G50w1bXa9OWX5FcdfRmPl3L9i2p3T140YWtcf/6Rb2q6kE728/ez0PcDAIBNZP3Dorn62b8wxZ1G1W4rhEZ97/y80d5ejY7aimNgnrnAZbHlbj0n1Iz/ub550BsWrjLn2/XYqBgYxr7noHTarU6mL+9OYRdx7PwTfbLFG3J+4D/80HaG3N8Jkfp0le2r0tmmXv3JmpVCFxHcx5VWAYP7+eW7b81+AACABSJzM2PJZy4/r7oHnSSTo5s3b2rXrl22VXimpqZUVFRkW+vIXO1rrukooJ+HMf+2G/LcrJNC334AAPLFyPBple7cngdXQwMAACBvERbXEz86DQAAChxhEQAAAKG27DmLAAAAW8VKzuf3z1nckmERAABgq1jphb1c4AIAAIAlERYBAAAQirAIAACAUIRFAAAAhCIsAgAAIBRhEQAAAKEIiwAAAAhFWAQAAEAowiIAAABCERYBAAAQirAIAACAUJs7LCZ6VFPTo4RtAgAAYHnyJiwmemoUiURSU03PBkU8EyhTjxvTsO1eE4RVAABQ4PIiLJqgWDbQrOlkUkl3mlbz1aGNCVnRdo1Od6u6utt5/F7V224AAADkRVgc1qNxqftku6K2x0lwau912rYy1xObr/qlVyBr5BYg3eViitX4/RHFAiXCIff+C/uzSnvMwH3CHiOzephqJ9RzOK6xsbjKnGU3rFIKAACwhiJzM2PJZy4/r7oHD9qupd28eVO7du2yrcXNzMzYW9mVJv9aNYelk6PBsGiZ4FUWV+W5pHqzlfyGY4oM7lfyyKSz3ICap0fVblZi+hukc9O7dSx4f9N/bLemMx/LPI6/DZmP6d/npHQ47DGC25+5riz7ttRzAgAAsJTS0lJ7a3FTU1MqKiqyrdyNDJ9W6c7tGxMWF92ZtECVUE9NmeJjTr8ZFjYBLTNs2TBnFnFlXW5Yscgx7X6qWQNHA/0h4W3RgOe3V/IYYY8HAACwCkvmq4DVhsVbPwwdLVfl2ICG3FHaqNpHk0qacwjdmRlM+HKre/bcxrDlAAAAsCby4JzFeh3pluKHc7xquLpZjbZMlxgamK8wBg0Pqs8sV2zb6yH4GGNXNe31LtymwDwAAIBCkxdXQ0fbRzXdPOBeCOJePFIWl5obFw7dRtt1tNK7YMQsd/hq5Xxl0V5I4t7fnEuY69CvW630L0RZ4qdzsj2Gs00nuyfUYPvTtslsb1ufO48LXAAAQCG69ecsroWNODeQ8w8BAECe2FrnLAIAACBvbY6waH5Ye70rfhvxGAAAAHmGyiIAAABCERYBAAAQirAIAACAUIRFAAAAhCIsAgAAIBRhEQAAAKEIiwAAAAhFWAQAAEAowiIAAABC5c3fhv7MZz5jbwEAsPl97nOfs7cK05kzZ+wtrLUDBw7YW+E28m9D51VYLPQ3DgAAudgMn3kmLO7Zs8e2sFauXLmSd2GRYWgAAACEIiwCAAAgFGERAAAAoQiLAAAACEVYXI5Ej2pqepSwzbWXUE9NRJHYsG2v0HBMkUiNetZvQwEAG2ndP3/WwWy/mpr6NWuboS52qLi42J06Ltq+XOS6fqza1gqLq3yzJYYGpOZGRW17rSV6DiteeU7J3nrbswzBfavvVfJcpeKHC+zAAgBQTSTifOH3p5hyLh+EfcYt6DeFiXwpKFxUR8s1dV6a09zcnI7vtd3LRXBcV1srLEbbNTravuKwN33VZMX1iorDejQudR9ZQVDMpv6IuhXXo6ssUgIANlh1t6aTSSXNdE5qWG1FMdqoZg1oyF9JYshpNWvdPs6WY/a6rqlCO0tsexN67rnn7K2FFpuXT/IvLNpvQD2x+W9WqVFZMy/4jcu+gRI9Nel97jpiipkhXdvvriPt29WwYv59gvNTfZnfuoY12FepcufNlfZ4actlWWeQu/7gt0SzvG0PD6qvOvDmTdsWu0za9jtSbedb4uG4xsbiKnOWr3E3KKrG5mpNTKbtBACgkNTvV9vYVU3bpivb50PWzwGf+TyQBvy06FU+3MLJgs9Pb4mVMxU+O6RcXNulcdud1l/cpH63BHhRHe4yp9Ri+pv69dX+ptSQdGq5zKrhgirirPrjznrGu1Tr3K/JW3leePXVV/XEE09oZGTE9swzfWaeWSbf5Wdl0XmxX93vf6tqU98x8wJ2glVZXJXnbP90t6rNss6b5nC8Uufst7BzlfZNNTah3ScD62gIhjRTgm+QcydvvjP11pv1X9VR205OO9/DgsO4Jsy17Zep+0XbR1P3c4d73fJdtnW695wXbdfRtj4N+hsSWGdickLVqSHu9H2d7p5Qw6LnMUbVftJ5Puy30dF2by3R8kqNXU07xAAACkii55j6qnerzLbDPx+yfw74gp8Hw4N9qvQqH9k/P1fMC38VJ7wh5blLnapK9Sf0sOlz+xs1FDdhb6+Om2WqOnXJ9J9t1W+3nvWWMdOJCnX15nISY4lau+fXc7Y1f8qUd911lz772c/q/PnzaYHR3DZ9Zp5ZJt/lZ1h0Xuyp0diy3TYUTmoi2O+LlqtSfWqw367qe3vd8OUkr/kqnflmpglNztm2W4LPWJdZv7se+w3LeTOOBb7NmTdX2357h+C3uoY+aWJSiWzrzKJ+vxNcbVocHpzIPuycsa9R5ythdd9gIOzmyDx3ZttsEwBQAGx10HzGlA00azp4+tRKPx/M56C7XEKTE21yP87CPj9XygwpO4EtlnneoTvUbKuHZjLVxPGEbtjZaYIVyJZT0rXrBX8eYmZgLLSgaBTOOYvTVzVmb6arV6/7rWi/Bt03V7CCuEz2G5lfGUwm/TeOeXNVa7f5ameCYtmAmqftMn6FM1fmXMIJ84Yd1uDEOp8zYp6zyvL5gwwAIP8FP4tWcZ59unrtb5vQ5PCQBiq9Ea01/fxcil89TE3HteBaFhMUa4fUaC92ma9MFr5gYCy0oGgUTlh0z9sInKDrc8JbzD03w7zop9VdHagg+vzzAYtt2z3ZN+PiD/MNy/k2l/WCkMyTgQNVS3OFtBtis63TcKuQwTegOXdkQoOxQU0Erqx2hwgGhrwqYMa2uI9hh6sVqHamHtuXcV6LO7TtJlwAwKaw2OeDkXl+Y0D9/krFG+KqDIySLfj8NM0Fn1s5KtmpivEhXbClwNkLQ945i25/l3IaUa5q1D47ipy6vxGoRKb1B4VVK/OEHxgLLSgahRMWzYvZnB9YZod/zTCx6XbeOE6n1xcp00DzSbWbUBgo40fMqYRp3868czsmGux8Z4oNO+ufTu9LXUAT/Mkcc95h5fy6D1+ttJXFbOt0Zyxghg0m+qSjwXNK0sJw+raUmXNKzAmQzmOfNOenLHhshz0f0szzTmxOaGhgzDsvBQCwSYR8PhgLPgcyuKdk2SFoI9vn56o+MvbquDnPsNYbRo4nKmxl0Ds38VqLHV42U7afuSlp1cMV3kUqafd3+rs7r6WGsefXG2Due8gb6s6nC1wymZBYaEHRiMzNjCWfufy86h48aLuWdvPmTe3atcu2FjczM6PS0lLbCveZz3xGn/vc52wrB+aHpwf3Z/9NQvOt6LB0co3K98OxiAb3Z7lgZY2Zq9LKrh5d2e8sZjLPz7Hd6ee6AADywrI/8/LQmTNntGfPHtvCWrly5YoOHDhgW+FyzVfG1NSUioqKbCt3I8OnVbpzeyFVFr3Q5n0DciZTLVzv9OYyP5kT+Ca2jqLtJ9U90bA2f8GlYULdJwmKAABgdQoqLNb32hN+3WmRq7aiq/vx7XTmXI5VXiGWs6jaR519W20INn/BJTm6yuEEAACAAguLAAAA2Fh5dc4iAABbxWY4ZxHrI9/OWcybsAgAAIDccIELAAAA8gJhEQAAAKEIiwAAAAhFWAQAAEAowiIAAABCERYBAAAQirAIAACAUIRFAAAAhCIsAgAAIBRhEQAAAKEIiwAAAAhFWAQAAEAowiIAAABCERYBAAAQKjI3M5Z85vLzqnvwoO1a2s2bN7Vr1y7bWtzMzIxKS0ttC+upvNzewKKmppqVTA7YFgAAhWc5+WpqakpFRUW2lbuR4dMq3bmdsLiZmLDovB6wqNPuRFhcnjNnzthbWG8HDhywt5Crz3zmM/bW+vnc5z5nbyEXHDPCrdV7nLCIFSEs5oKwuBLmwL9nzx7bwnq5cuUKYXEFTFhczzC33uvfjDhmZLeW7/GNDIucswgAAIBQhEUAAACEIiwCAAAgFGERAAAAoTZ3WEz0qKamRwnbBNYNr7Vws/1qaurXrG0ukG3+UvfByl5zvE5xq+T6nr7YoeLiYnfquGj7cMsVXlgcjikSicxPsWE7A1gl80EaeG3V9NiPVD5g18ZKAiCh0ZV2zPNfnyf+wc7NwOvVGlYsr56HhHpqnH+7XLZpy/4bXlRHyzV1XprT3Nycju9Y6v0/q/4mJ1jmcozgWLIqBRUWEz01ijRI55JJJe10ToPOIQFYvVjZgJqn/dfWOVVenbZzsCZKWnX2bKtKbDMnK7lPHnnuuefsrYUWm5fJfU1Od6u6ulvT9tg32vJLdm6GaLtGR9sVtc2tyP2scD4s+mw7LySGNKA2538DGloqBW7Vf8PZ67qmCu3M9Q0/e0FDOuT8b0gXlkqB63QsWav3eL4rqLA4NCB1T/eq3raN+l7bTqsKxRYGyGzz7be3nlhGX6RGflEJW0mlylNH53r19ppXVkI9h+MaG4urzFRzei641YH5gvawYub1MmebRtprLfBa2mSvrdn+ptRwUeqbvfn27vcVdyhtFCn4zT64XG2Xxt0FsvDvY//b3+GvOzBElfaYTerPk9LBq6++qieeeEIjIyO2Z57pM/PMMqs15B6/vMl9XdrjmvcyM6/PwPxLbqfHHaVxXo8XgsfBwHqMkNeyF8Zsv32sbH236jUfbR/1wrVtr5esx4KQfU2YD7DmI9pfOaaBVFr0/n3SRjEC/yamN5+e1zWT9T17UR3useCUWkx/06N6NO60x7tU67SbsryxZy8MSY0x1VWMayiVFp31BJd3H8t5jK/aY4nbleXYtQIb9R7PBwUVFgfGgh/mQc4briyuynPeN+7p7gk1pA1PLzLfCQFX95v+9BCKrWd/W58azAE57bUTVfvJ+YrOaPs+tR9tU9+gXWZ4UH1tR9Ve7DW919pVHbXVn+R0swYO+x/cm4hzAI53VejEnDdcdKIioRv2YF9xwuu71HlNLVlPOkpfbu5Sp6rsnEU5HxqJOnufE4d06nFzkDfrSuhhux1zlxo1FF/5wX8t3XXXXfrsZz+r8+fPp32YmNumz8wzy6xK6vjlTOec1+Wx4GvNDHu6QzHefGfqrfVnOWHDnTXqvXazrifktezc93C8MjXCc67yqqaz9XmPtKllPRZk/YxKuMWO5sao6ve3aWxgyP47OV9KnVCr+KPOs22+mJrRDftvYmzK5zXsPbtXx82xoKpTl0z/2SM60j3fPtuaWROclZsV95Vob90hjQ9dsO97bz3q6nUeaVb98SE1Xjqr1ve7M0OOXSuzIe/xPFFY5yxW71aZvZkmMakJ58P8iE170cZmVfcFhqcXmx/od5nyvzmAbuUxnC2qvtd+KO4f9L7Fp4XGgPr9arOvn+HBPrXtD7yAzGtNNnSayfmSMjZmD/Cb6bVVslMVbgXAqx7uPX5ce80QknNgj+21i+xrVNWpEXd+mozlcha8z46oFzDdYStbiTCTqUyMr/zgv9YyP0zW/EMkePwq251eSXOHPTOOb4apkrshMPAFOdt6wl7L0XJVuv3eaIw7upOtz6xjsx9PQ44FwWqgWzV0/y2a5WRF7z5jgaFo5zk6aQoYkTINNJ9Mf6424/O6Vu9Zdwi6UU5WdA5AdTo0HhiKLmlVt/myWlyrocZupeXMbMcub86KrPt7PE8UVFisDL7BgPVS3+uExnOpD4GF6t0q5ODwsAb72hTMii7ng9c/r8ybNmPV2vn27n4zr9OIe9DPGHLeSH4lIjWt7uC/1oIfJnnxIeK8Ps8tGH0JkfW1XK9e9/Z+DbqByASZbH1bQfZjgTsMbp+zUSfRmSFo/1QW71zK4FC0yYSV9lamTfq8rsF71gxB+0PUxcUtTvwLDkWbTFhhb2Va+2NX3r3H10FBhcUjplpflv5mGY45bfPty3kjPmpnuG/Mtv3O28xaan5QoZ8LghWrCX54utXoQCXbrw5a9c6LcaKhQRPdR9JfRxmvtTSb6bU1268O95wgc+C9pM6qa7ou5xu7c/DutUde92B+qG7hh4D5Zh+oArjLeTeXz13X/GPmK//DZEM/RKKNalb212KZE2bOqWH+XLlswl7Lzus45t7PBJlpdVdPaPJClj7T3ALH09BjQYoZgh5TW+B0ADPUPz8UPayYe0rAOVXGD6c/V9me60J/Xpf7ns1adTRD0OM65J/KYqYTwaHoi+pokU7MnVBFVzz9POZsx67g/BW6Je/xDVRQYdF8W3PPN3S/YXlTg0zoc95I0+YN6/WVmXM83IsTfEvNB6TmiYbU6ypirow+aa9GjLbrqD2fMfXhaj6Iq6vdc5DSpb/W3Mk/KX0zcQ746qr1hpFSQz3euULXWkxfsWrNeUHHs9ULnOVOVDh395aLJypyO2cxq/THdKdVnLC+nswHyMZ+iHjn2wZfi8ELXOp7TTgpC/8JnrDXshMinW/tts8One7L0ncLh0jdYWB32Nyr5uVSRF2x0GOBle10gNRQtBMU3Z/4sBXbc5XpBZFsz3UhDj2nWcZ7tqRVDx/yhqzTLnBxh6AzTmVJDUU7QbHYJEVTrfSPNYHqYdZjl523Shv/Ht84kbmZseQzl59X3YMHbdfSbt68qV27dtnW4mZmZlRaWmpbWE/lznFlaso2EOK0OyWTA15zpcyVpMd2a3qL/LzFmTNntGfPHtvCerly5YoOHDhgW8jVZz7zGX3uc5+zrbW36Pq32LEgVxwzslvL9/hy8tWUEw6KiopsK3cjw6dVunN7gV3gAuQJ92T2o3w4AFsdxwJsBYRFYAXMldOcyQCAYwG2AsIiAAAAQnHO4ibCOYu5WKNzFrcYc/4RNgbnLC6fOadwva3nOZGbEceMcIV4ziJhcRPxwqIJQ1gcYREAUNgIi1iRSKTZ3sJSCIsAgEJGWAQAAECojQyLXOACAACAUIRFAAAAhCIsAgAAIBRhEQAAAKEIiwAAAAhFWAQAAEAowiIAAABCERYBAAAQirAIAACAUIRFAAAAhCIsAgAAIBRhEQAAAKEIiwAAAAhFWAQAAEAowiIAAABCERYBAAAQKjI3M5Z85vLzqnvwoO1a2s2bN7Vr1y7bWtzMzIy9BQAAgLVSWlpqby1uampKRUVFtpW7keHTKt25ff3DIgAAAG6d1YZFhqEBAAAQirAIAACAUIRFANgqEj2qqelRwjYBIBe3Piyag1ckokhgig3beYtZj4MeB1IAeSLRU5N2XKzp4cgE4NbIj8pidbemk0klzTTdrYmGHAMjAGxCJiiWDTTPHxeT02q+OsQXWQC3RP4NQ0fbNWoC4zGvwpf+7bpG3pfrhHoOxzU2FleZ/cadfbmM+/tVw7RqZvg6AWDjDevRuNR9sl1R2+McGNXe67Tt6EdPzBy7Ys6SIcdId7mYYjV+f/oX8CH3/gv7ASCbW/47i6XJv1bNYenkaPDAOKxYZFD7k72qtz2u4Zgig/uV7HV6zcFwwf0sf7kjk6opu6qjdj3DsZjUu1+DwXUH1xOyTn4rEsBKZPsNtJUdEy1zjCqLq/JcUuYwuEDasW9AzdOjajcrMf0N0rnp3ToWvL/pP7Zb04HH4ngHFI6N+p1FmbA48J++lHz55ZdzniYnJ5O5SiQS9laI6e5kdXV3cto2PeeSbWpz/t9h5ktJZ5u9yV82835ZlzPrMW27LiNzueD8rNsCAMsXduxb3jFxOtldbY9Tpi/bMSrbsW/BcuZYWJ3sfiqjn2MeULCWPJYEmNyWLc8tNQ38xy8ln33mb5L5eTV0YlIT1btV5n6LNt+O589ndA6KC4UuV69e93wfU000Qy7esE3aOZLulFHBBIBbJVquyrEBDblnwkTVPho8pmXI9RgJAKuQh2FxWDEzTHLUDotUN6vRjo8khgY05t30jF3VtL2ZdTnnQBpzT+AxoXFa3dUTmpQ5EMf1aNh5OsF1AsCGq9eRbil+OMdfZljsGOkbHlSfWa7YtgFgGfIjLNqLSrwTro9pt/Mt2T2fJtquo5Xz8w5frZz/1mzmtfWpwemvGWrMvpzzDV3xMrveMg00n1R71AmO5gKaBv/xnMm/8CW4Ti5wAXCLRNtHNd08MH9cdL5Aq7lx4TmMix0jg8dVc75itnMgASAHG3KBS64nYALAZhF27NuQY6IZng67SAbAprCcYwl/GxoAAADrhrAIAJuN+b1aqooA1ghhEQAAAKEIiwAAAAhFWAQAAEAowiIAAABCERYBAAAQirAIAACAUIRFAAAAhCIsAgAAIBRhEQAAAKHy5m9Dnzlzxt4CgPx24MABeyvcav829LHPP2ZvAdhqjn7qEXsr3Eb+bei8Cot79uyxLQDIT1euXNmwsJjLBwaAzSXX9z5hEQDy1EaHRXOQB7A1mGyVj2GRcxYBAAAQirAIAACAUIRFAMDqzJ3QQw+d0Jxtrr05nXioXOWdT9v2Cj3dqfLyh3Ri/TYU2JQKJyzO9qupqV+ztolF8FwBWI5Vhr25i8NS/V4V2/ZamzvxSR0v/5Imuz5qe5YhuG8f7dLkl8p1/JPrGWyBzafwKosEIQBYW8UtevLJlhWHvbnrJiuuV1R8Wv3HpY7WFQTFbD7aqg4dV/8qi5TAVlJ4YbGkVWfPtqrENgFgNZ577jl7a6HF5m04WyE70Vmu8nJvSo3Kmnm2z51sJW3uxEPpfe46OtVphnRtv7uOtMri0+r07xOcn+rLHMZ9Wk89Wa6dTlZMe7y05bKsM8hdf6ezlM8sb9tPP6Un769XKoumbYtdJm37Han2nE588ri+8Y3jqnOWf8jdoGLtrb9fk9fTdgLAIvI7LJoqYnGxis1U26Vxv89WFmf7m7x57tSkfr/cGLyfmczy9n79HaavQxfdxbLc312uQx1NXn/HxVn1p267a0+/X1iVM20b/G27qA6n3eRvqLuMN29F25IxP9UflHU7ABivvvqqnnjiCY2MjNieeabPzDPL5A0n9Fz/2KQmJ53pSw/pyf/TBCInWNUdV/mXbP9Ih+43yzqB6ZPHy/Ul0+dMXyq/7oWpb0xq5xcC6/h4MKSZcwM/LudO3nxn6vqoWf91fcK2J0fqNRwcxjVh7qGPydT9ilueTN3PHe51y3fZ1unec15xiz7x0JN6yt+QwDrnrk/q/tQQd/q+jnRM6uOLnsdYrJYvOM/H/R0acZZ/ssVbS/HOcn2DsAjkLI/DohOsnIBY4XwTnJtzpkudqrJzfCWtZ715ZjpRoa5ek5QWud94lxJ1pv+49jrN7Pc3y11TtNv0HdKplrjk337cC53xrgrnG7N3vxMVCd3w7hVgtiGhh/11X2rUUNyEyr067myP80DOEk7wiw+p8dJZtZascFuC8937mWW8IOwJ2w4Axl133aXPfvazOn/+fFpgNLdNn5lnlskbTuhJjcYW77Sh8Lomg/0+Z365ntTHbfXto11dbvhyktd8le6jH9NDmtT179r23EUNK2NdZv3uemw1zwlr3/iGDZ6Op596Ug99zN4hWPX7+JPSpLNctnVm8dGPOcHVpsWnn5rMPuycsa/Fe+t1/5NPBcJujsxzZ7bNNgEsLn/D4ux1XavqVMykujDBqlnLKenadSfMLXK/zP5s9zf9VY3aZ8a5d0RVFbxt5pXsVIVOqcVWJ/ce94JnsDLY9OgVXXOXses2VdFxGypLWtXdec2ZV6uhxm43KLpWsi2G32fsrdMh55Gvf8e2zXMRth0AXJmBMW+DYhgnQH3D3kz3UXW5lbyP6Sk3wAUriMtkK3OpquGkDZ5O3Lo+eb87BO0Gxbph1Y/YZfwKZ67MuYSTJvg9racmA4F2PZjnrHznul2QA2w2hXfOos+Eq1pTmfOrZraCeCPhDVcvJez+S9qr426lrk4jbgjzQmOwMnj24H1uML1k297khUqjZGeFvWWteFtysMh2APAEA2NBBUXDVAe/MayLmWUyJ7x1uufomdA4oo77AxVEn38+4K/YdvFe1Wde/GEqlN8IuSDErRoGgl2gammukHZDbLZ1Gm4VMhhgzbmEk3qq8ylNBq6sdoeMhy96VcCMbXEfww5XK1DtTD22LzDPcIe23YQLIBf5GxZNBW98SBfsmOnshaGFITBQVUvNN9W1wP0Wle3+S3GCXYd74p8JjZfUWXVN1zMfy932LvkjyekuqqNFOuEcKCu64vPnEK5kWzJdHNEps5732/ai2wEgyA+MBRUUXU4YNOcH1gWGiU23E6ycTq+vvE7D9V9QiwmF9mIPb6hY+lLaVdDeOX6TH7fznanzaWf9I+l9qQtogj+ZY847LJ9f9yevl9vKYrZ1ujMWMMPKk09Kn7DnFrrSwnD6ttSZczLNCZDOY3/BnL+44LEd9nxIM8+7wGVOF4e/oXLCIpCzPK4sOmHMnLtX6w2hxhMV6dW2klY9XNGlWjvEOj8//X6pC2Myhd5/CU4Ac1burTtzKDnFOzfxmnPA85ZzJvdCGCcoOgcunTDVPX87O3RxpdtiOGHQv5+76rQrxcO2A0A2JiTmbVB03uBpP28TbJvfD/SHiL/0kJwk5PT7w9De5F/ckT6kbIeTg+sytwP3cy9GyeibtMvOXU8PXR/tml/mya6uHNbpD2db2fqcVmuHk3v9cmLauuaXDV5ck/bYDn+73Ofg6X4dz+EcSgDzInMzY8lnLj+vugcP2q6l3bx50/1j17nI9Q9dnzlzRnv27LGtNXSxQ8UjdZo7vgkHX83wtbnmhZ8SAjbMlStXdODAAdsKF3bsy/WYeOzzj+nopx7R1NSU7Qn3dGe5zPUknof0pQWByzJDv5+UvhAIUitnft7mKX0s7LHWlLmium7lP8ztM3/B5eOT6hh5UsHiJZAvTLby3/tLyfVYYpjjSFFRkW3lbmT4tEp3bi/gcxYXcdH9eRw7uYU8ztIDsHkFK3rBatsCpiq3JkHRMJXLjQiKRrFannT2bTVB0XArsARFYLk2f2URANbQRlcWAWwtVBYBAABQUPKqsggAhYDKIoD1ko+VxbwJiwCwmRAWAawEw9AAAAAoKIRFAAAAhCIsAgAAIBRhEQAAAKEIiwAAAAjF1dDYMvh5JqwVfjoHwHrhp3OAW4i/EoS1wF9wAbCe+OkcAAAAFBTCIgAAAEIRFgEAABCKsAgAAIBQWzMsDscUiUTcKTZs+/JZokc1NT1K2CYAAMBGyZuwWGPD27JC3IpC1LBiDRPqnk4qmUyqt952r6eNCHsEyhWb7W9ScXFxamrqn7Vz1tFsv5qa+rUBjwQAwKrkT2WxulvTTngzAS453a2JhnWq+iUmNaFKlUdteyNE2zU62q6NfEjkxgTF2qFGXZqb05w7nVBFV+3GBEbkheeee87eWmixeQCwVeTnMLQJVyYwHvMqZYmemkDVsUY9bvksoZ7DcY2NxVXm9Nc4ndmXCxpWrMy5j/rUYJapalJVTY96Ymb5mDPXYSp0qXUE+mpiitV4/bFh57FTt80C6dK2w1T7/KrfUuvJrA5mth25PhfufVPLBfcj2/5me662govq7ZI6u1tVYnukvTp+qVMauqDZzOpfWvuiOgLVyI6LGRVKu1x61bJJXgadVX+8S+PjXap1+t1gatadWq7DWbt7Z/fx+jsCfVhTr776qp544gmNjIzYnnmmz8wzywDAVpa/5yxGy1U5dlXT5mb7qFdxNNO5SsUfNTEnqvaT3aq2FcnR9mjIckH16nVCqH+f5ECt7nAC1tX95j69zlwvTFae89Yx3T2hBj8Njk1o90mz3jb1NRyW/Ns20KY44etwvFLn7Hacq/T2ISXX9YTI7bmYXmQ/gvu7xc1e17WqRu2bT4qekp2qGE/ohm0u5IS9phbphF+NnNPxHf2Kd1U4XV77RIV3/5LWs6ll5k5UqKvXRL4StXZ3qqqq061onm29oY7aLlXY9V3qvKYWkz4NJ1Am6kz/cSfGYq3ddddd+uxnP6vz58+nBUZz2/SZeWYZANjKCuMCl2CVrKFPmpjMHqxyXS7ICVhH/NRkhqgD7Whjs6r7Br0KXHWzGs04ctluJ5QFbpt5QSbkupVLr3JX35sRynJdT5hc9nHR/Qjsr2GquMlROVkbuZq9oCF1KhZMbyZg6pRabAVw73Eb7oIVw5ZT0rXr85VKnxta59dXsq9RVadGvEpioB/rIzMwEhQBIF3+hkU38OxWmQlHZQNqthekmPMZswarXJdbd/XqNY+f3K9BN9TZ4d61kDf7uEm4FcQhXchMb254i2qHbeZmr467FcQ6jfhDySYo1g6p8ZKtLF7qVJVdGvklGBgJigCQLk/Doh0OPmovCvErcI7E0IDGvJseO1TtWmy5XLhD33H5o9fuOtr2L2+41gl0MfcEQBMap9VdPaHJOW9WTgL7k3UfcnkulrMfbqVyq56zuFexTqkrHrwq+aI3JPywPY8xMBw9e2FI4+ZGyT41qkvuiLLPCYYd7gmJJjReUmfVNV3/jtMMDHOn7u/z1+2G1vn1ucsdqmPYeYP5gZGgCADp8ics2oszvAsyjmn3tP1Zm2i7jlbOzzt8tXK+mmbmtXkXq9QMNYYvlzPvnEZzJbZZR5k593C5v63jBDXFy+x+lGmg+aTai+28pTj7c9KcXxi2D7k+Fz1lq9+PLcKcU3ipcci90MS7uMQ7F/G4SWolreo25w/aefFEha0MeuccXmvx71Osjhs7ndRZa9u1GmrsVutvt+rhCu8ilvT7O5x1P3zIDFubC1x2uBfV+OurNec+uhuAjWZCIkERANJF5mbGks9cfl51Dx60XUu7efOmdu3aZVuLm5mZUWlpqW0Bt86ZM2e0Z88e28rCDBvHpe6zwaujgXRXrlzRgQMHbCtc2LEv12Pisc8/pqOfesS2AGwVub73l5OvpqamVFRUZFu5Gxk+rdKd2wvkAhdgI5hqX6oS6P/MDQAAWxthEQjYe9xejDJ3Vq2UFwEAW9iNue/p8rPXCIsAAABYaO7bf6+v/90U5yxi6zDnLAJrgXMWAayXfDpn8dOf/rTeeustwiIArAfCIoCVyMewyDA0AAAAQhEWAQAAsMDPvfsO3XvP3YRFAAAALPSRD+/WwQN7CYsAAAAIR1gEAABAqLy5Gtpc/QMAhWA1VypyNTSAxeTT1dD+n/uL/OOa48l773tZ//7fd9hZS1uvsHirD4yvvPKK/uIv/kJ/+qd/qrvvvtv2brwXXnhB27dvt61bL9+2B7hVzHuh/+RpwiKAdZOPYXHb10a/rxs3XrXdW5cJirFYzA1FJiyaNgAAwFb11dHLOuF8QeacRYcfFP/5P//namtr05/92Z8RGAEAwJb22muvO1noVW37wO579N6iO2331hMMir//+7/v9pkhdgIjAADYyj72u7+t/+0T/0LbhofqFGsrt91bk6km+kHR5wfG733ve7YHAABg69nyw9DmQpbf+Z3fsa10JjDmeiEPAADAZsQ5iwAAAAi1ecNiokc1kYhqehK2w2H6anoU6CkwCfXURBRx9itzSttPFB77ek379yz41ysAYDPY3JXF6jZVDhzW5slRUbWPJpVMOtN0t6qruzVtbjvTaHvULoPCM6xY2YCap+2/bfKcKq9OO//c7RodbXf+1QEAuHU2+TD0bh05Wqn4o8O2PS/RUxOozNV4gdKt5MQUs9W72PB8JS/mryKtAmTvd8t525naRhM+Iju0o2p+X/J/H7a6SpWnUmG9envr7evRVBYXVpTdf0v+HQEAG2Dzn7NY36tzaggEKU+0fdRWcZzpXCBQjk1o90nT16a+hsOSf/uY+dA2FaCrOurfb7pZA4fzYZgwqvajzjYO2n0YHlTfQ3V639ftvrj7aPYn5uxBvu7DVlav/W19ajChL/OF6gpUlJ1/R1V360g9/44AgI2xJS5wqT/SrQk37AUEqzINfdLEpDe/ulmNpsJTtlvVwdtmXmJSE7If6mYqi2ts7KqmzbxbrX6/2voGnShosmKf2h7YPb8vhpnvbP3khTzehy2svteGvv2D3r9LttBoXrMNE+o+2a5oPr8WAQCbypYIi+bcr5PNA3p0yLbNh27wHDFz/p+dtaTAeYLe1Kt6O+vW8qpTg8PDGuxr0/5a251N3u4DTCXcnLPoB/95CfUcjqvy3KhSp6fy7wgA2ABbIyw6ou1HpXhcY7YdrLolhgbm+xcTLVflWFxZToHMC24FtaFBE91HFoYGMzRt9nlffu/DlmS+vAQriaZqWL1bZbZpJHoOK155TuZURleevxYBAJvHlgmLpvLWa873MqLtOloZV5kdwjt8tTLHyqKzjmkTyOzQn5ny6adNoo1qrq5Ws5+CnTDh72OkQTrnXlmb5/uwFZl/t4mG+X8PU/U2Q812trlg6dG483Wmz1/GnHvKvyMAYGNE5mbGks9cfl51Dx60XUu7efNmzn/ZZGZmRqWlpbYV7tjnH9PRTz1iW1vbCy+8oO3bt9vWMgzHFDm2W9MmFJpqlbk+Zw1+emXF2wNsMua90H/ydE7HqrBjH8dEAIvJ9b2f67HEmJqaUlFRkW3lbmT4tEp3bt9KlcXNz72w5ejqwyEAAICPsLiJmCtq589p4wedAQDA6hEWAQAAEIqwCAAAgFCERQAAAIQiLOahV155xd7KD/m2PcCtwnsBwFZEWAQAAMACb7z5ll57/U3CIgAAABb6/g9+opnZHxIWAQAAsNCvvPc9+mB5EWERAAAA4QiLAAAACEVYBAAAQCjCIgAAAEIRFgEAABCKsAgAAIBQmycsDscUiUTcKTZs+7aiRI9qanqUsE0AAIDV2CRhcVixhgl1TyeVTCbVW2+7N4N8DH9mm2wwN1NNj791zr9Dqj/mtHxh/QAAIN9tjrCYmNSEKlUete3NJNqu0dF25dWuTV9V5TkvmCeT51QZPyyTF4djDZLtn+6eUIMt8Yb1AwCA/Je3YTHRU2MrUWaqccOIJ1ilMkPOTrssrjH1qcH0VTWpqqZHPTEz31ax0iph4euKmApeZiUv2M62Hjvfezxvms9CmduaUE9N5vzg9mThP/5ijxPcLve5sEK3N6aYsx0L1pOr+t5A9bZMu6vNf4c12Nem/bY/2tis6olJ53kL6wcAAIUgb8NitH3UVq6c6Vyl4o+aRGPC1nyVyky99fXqne5WdXW3pk3fQK3uGIvr6n4zv1f1JpCVXdVRf13TzRo4bMJfxrrMOryHDhG2Hkfq8ZzpXJv6jmVZvzP11kfVftSZP2jT2fCg+tqOqj3XsmHWxzHbFZ+v9KX2Y7HtndDuk7bfrKdhFUPDiSENqFmNmfsQLVfl2FVN22ZKWD8AAMhL+TsMHayKNfRJphrlBpNuHVnqnEQnOKaWcYeobdXRTKby5oaVaV0dm694LSl0PY7g45Xt9sJa2LbW71db36AbzoYH+9SW8wY4sj6Os13Bft+i2xsId2Z7nCUnV1TqM4HUiYon82yYHAAArJn8DIsmKJoQYi9YWbrqtwS/6piaTMVxBdZkPfXa39anweH04dl1sVb7nZUTFCPHtHt6NHtl1A2xu1Vmmylh/QAAIC/lb2UxUP1KDA145+FFG9WsuNwR6Vy5w57Z7mPOtTOhzTaDAsOk848dtp4Qi2xr/ZFuTTQ0aKL7yOrDm7tdAxqylcFlb68ZCg9WGnPhVn0zg6Ifgr2Wux2V5YqG9gMAgEKQn2Ex2q6jlXGV2SHUw1crbWUxqvaTJmjZoVVnWvriDO+cxuB93AtZMtflXxjiPPZJc8WuXXb+scPWE2aRbTVBsrpazctKaGGc7TLndJZ5j5HT9joh0n9uI+a0ymVebe0F0rHUY5rJ/HxOfe85OU+c2y6LV+qcvQomrB8AAOS/yNzMWPKZy8+r7sGDtmtpN2/e1K5du2xrcTMzMyotLbWtcMc+/5iOfuoR27oFTLXssHRyI36mxvyA+LHdmg55rMnJSZWXl9vWGlvBfq7r9gAFxLwXBs5+OadjVdixr2COiQBuiVzf+7keS4ypqSkVFRXZVu5Ghk+rdOf2PB6G3sTcC1uOclEIAADIf4RF3wb++HV97y38KzP5+CPfAAAgbxEWAQAAEIqwCAAAgFCERQAAAIQiLAIAACAUYREAAAChCIsAAAAIRVgEAABAqLz6Cy7NTQ/aFgDkJ/6CC4D1lI9/wYU/95eH8u3P6/Hn/gAPf+4PwHrLx7DIMDQAAABCERYBAAAQirAIAACAUIRFAAAAhCIsAgAAIBRhEQAAAKEIiwAAAAhFWAQAAEAowiIAAABCERYLTaJHNTU9SthmQRiOKRKJuFNs2PYBAICCsHnCYiGGqC1hWLGGCXVPJ5VMJtVbb7sBAEBBoLKI9ZWY1IQqVR61bQAAUFDyNyyaSqEduoxEYnJHLzOrh6l2Qj2H4xobi6vMWb6mJ6O+6K7LrsM1rFhaO88Fn4syZz9td/pzVCN3t93nJKZYjd+/9kO/iZ6a1LpTj+syz2vwcZ22u719ajB9VU2qcv69emJmfuDfNHWf8HVFzL+zu2/Z/v3t7cz12Pne43nT/HORua3Oa8h5ztLnB7cHAICtKU/DohcyKs95Q5fT3RNqWDTxRNV+slvV1d2adpYfbc8oY0XbdbStT4P+KoYH1de2X4UxIpr+XCSnnf1M9V/VUdPn9jdr4LANTmMT2n3S9p9rU1/D2gbjaPuot253/ZWKP2rWbsJWg+RvpzP11ter12yv/XdJDtTqDifQX91v5vc6z3/YPmSsK7XPYRZ7LvzHcybzXBzLsn5n6q13XkNHnfn+i8R9jRxV5ksJAICtJj/Dohm6dALGEZvmoo3Nqu4bXFXgqd8/HwSGByfU7a8832U8Fynu8K6t2JnJVPDGrmrazKtuVqMfcur3q81ZcnItK2TBKl5DnzQxqURiSAPKsp2ZgvsSug/TujrWpv25/hMt+lwEHq9stxc6w7bVPFf2dTY82Ke2nDcAAIDNa+ucs1h/RN0TJggMa3AiEKYKmV+xS02mWrfOTFAsG1CzvWBl6arfEtZqH9ZkPfXa71agnddI3zLCKgAAm1h+hsVouSrH4nJHNx2JoQGN+cPGfsXI4fbb267APK/6FRx+jaqxeUKDsUFNNDc6rQLhPhcDGrKVwdQ+ZzxHocxwarDSuBYC65vfnkY1K4ftCQrdhzLtrg6cNhCU7d8/1+fCt8i21h/p1kRDgya6j6x/8AYAoADkaWXRO9dtosEbViyLV+qc+c2VaLtOmvMX7XDj4auV81Ute16imbfgAhfLDGdP9ElHC+pENOe5MOcFlmXuc/pz5E7+xR5OcDIX+rh95tS80fa1C8fmea6cX//89njnjQa3Z+kLa8L2IWNdZljZLB7677/Ic5HVIttqgmR1tZo3RekZAIDVi8zNjCWfufy86h48aLuWdvPmTe3atcu2FjczM6PS0lLbCnfs84/p6Kcesa2tbXJyUuXl5ba1TKaielg6uYYBcVXbsxbWYZ9CmR8QP7Zb0xvxWCg45r0wcPbLOR2rwo59HBMBLCbX936uxxJjampKRUVFtpW7keHTKt25fQudswjkwL2w5ShBEQAAH2Fxs4m2a3SzVcU2cJ/qe/krMwAABBEWAQAAEIqwCAAAgFCERQAAAIQiLAIAACAUYREAAAChCIsAAAAIRVgEAABAqLz6Cy7NTQ/aFgDkJ/6CC4D1lI9/wYU/95eHbvmf18uQb9sD3Cr8uT8A6y0fwyLD0AAAAAhFWAQAAEAowiIAAABCERYBAAAQirAIAACAUIRFAAAAhCIsAgAAIBRhEQAAAKEIiwAAAAhFWCw0iR7V1PQoYZsFYTimSCTiTrFh2wcAAApCfobFBYEooZ6aGvWkJaRhxcJCUyEGqk3L+XdqmFD3dFLJZFK99bYbAAAUhPwMi9FGNWtAQ37aSww5rWY1Rm2zp0aRSIP6vOZC0XaNjrbLLo5bKTGpCVWqnH8MAAAKUp4OQ0fV2CwN+Glx+qrU3JgKf9H2USWnu1Vt2wtstsqi2R87jBspi2vMdqf1R2zl1d33mGI1fv/aD/16YT3jcV3DiqX6zeM6bXd7+9Rg+qqaVOX8u/TEzPyYs7Qj2z640tcVMf+emf+uwXboc+E/njfNPxeZ22qq15nzM6vZAABsPXl7zmK0vFJjV6fd28ODfarcsqUpL3BVnvOGcedDsum/qqOmz+1v1sBhG5zGJrT7pO0/16a+BhvM1ogb1v3HPVep+KNm7SZsNUj+djpTb329es32Vndr2vQN1OqOsbiu7jfze1Ufug8Z61rsi4FrsefCfzxnMs/FsSzrd6be+qjajzrzB+0zNTyovrajaqciCgDY4vL3Apf6/WrrG3RiQEKTE23av1XPdTPDuE7YOpK5/+7wrq3YmclU8Mauyo3X1fND9u7z6Cw5uZYVsmAVr6FPmphUwj1VIMt2ZgruS+g+TOvq2DL+zRd9LgKPV7bbC51h25p6zXlfUNq27IsOAIB5+RsWVa/9bU7IGXY+2Cv3Oy0s4FfsUpOp1q0zExTLBtRsL1hZuuq3hLXahzVZj3nN9WlweFiDfVv4CwoAAAF5HBZNoadS8Ya4KnP51HarXWs73JoXouWqHJu/2CcxNOCds+j2x+WOAC/GDKcGK41rIbC++e0xFyXlsD1BoftQpt3VJrTZZpBfMXQs+7nwLbKt9Ue6NdHQoInuI3xBAQDAkddh0RtCXVjhcS+wcIca4yqLrP0FHPmlXr3mvMAyb4j18NVKW8nzzgecaLBDr2byL/awz4vbZ07NW8srw6PtOlo5v/757Ymq/WT69iz97xK2DxnrMv/WZnHnsU92T6SGm3N6LrJaZFtNkKyuVvOapmsAAApXZG5mLPnM5edV9+BB27W0mzdvateuXba1uJmZGZWWltpWuGOff0xHP/WIbW1tk5OTKi8vt61lMhXWw9LJNQyIq9qetbAO+xTK/ID4sd2a5qeXkIV5Lwyc/XJOx6qwYx/HRACLyfW9n+uxxJiamlJRUZFt5W5k+LRKd27P88oisMHcC1uOEhQBAPARFjebzfiD5Bu4T/W9/JUZAACCCIsAAAAIRVgEAABAKMIiAAAAQhEWAQAAEIqwCAAAgFCERQAAAIQiLAIAACBUXv0Fl+amB20LAPITf8EFwHrKx7/gwp/7A4BlWO2BnGMigMXkY1hkGBoAAAChCIsAAAAIRVgEAABAKMIiAAAAQhEWAQAAEIqwCAAAgFCERQAAAIQiLAIAACAUYREAAAChCIsAAAAIRVgEAABAKMIiAAAAQhEWAQAAEIqwCAAAgFCERQAAAIQiLAIAACAUYREAAAChCIsAAAAIRVgEAABAKMIiAAAAQhEWAQAAEIqwCAAAgFCERQAAAIQiLAIAACAUYREAAAChCIsAAAAIRVgEAABAqMjczFjymcvPq+7Bg7ZraTdv3tSuXbtsa3EzMzMqLS21rXDHPv+Yjn7qEdsCgPyU67Eq7Ni3nGMigK1pNceYbKamplRUVGRbuRsZPq3SndsJiwCwHBsVFgFgMRsZFhmGBgAAQCjCIgAAAEIRFgEAABCKsAgAAIBQhEUAAACEIiwCAAAgFD+dAwDLsJE/nXPmzBl7C8BWceDAAXtrcRv50zmERQBYho0Oi3v27LEtAJvdlStX8jIsMgwNAACAUIRFAAAAhCIsAgAAIBRhEQAAAKEIiwAAbGaz/Wpq6tesbQLLRVgEAGApJnAVF6upPxC51iGEzfY3qdh5HH9Kezxgg33/Bz/RzOyLhEUAAHJSdUgVQ3GtV34zQbF2qFGX5uY0506X1Ji4QEUQt8xdP/cO/cJ9dxIWAQDITVSxhyvU1XvRtgNs5dGrCDZ5gTJYeXTnd8i756z6m/zbvovq7ZI6u1tVYnvk3Go97rTtevo7zLq9+6VXIIOP16GOJr+/WB2BB7ng3n9hPxDm3Xe+U/e8h7AIAEDu9h7XCbVkhK2L6qhN6GG/InipUUNxJySW7FTFeEI3nCVmLwyp4pA04t7vhhJO8Nxhbvpmr+taVaP2zSfFdONdStSZ9R/XXqdZ0nrWVh+d6UQgwI5fU7Tb7z+kUy02lKbub/sf5xxG5I6wCADAMuyNdepaMGyZoKdTarFVu+LaLo27IXGv6g5d03VnwRuJCtXForpm0qJZvmJnoIKYyVQe7br8ymRVp2ImJfqClcyWU9K163a5QODcW6dDzpZd/45zO3j/HVFV2ZtALgiLAAAsR0mruhuH1HvBtg0njM2fa2gmrwLo5DIlblzUyLWodpTsU+O1EV28kVBFXTD5Odwq5JAuuImvRK1nnXVc6swe6kxQrB1S4yX7WGHLAWuEsAgAwDKVtD4sdXVp3G2YoNelbKcyluxrlB5/XNca9zkRsESmOTIiRdPGoI29inU6qzTD17ZnUYEKohnidrcj08URnTLLvd+2gRUiLAIAsGx7dfzEofnblzp1rcUOCweHj50gaZJco012pnnqWjTruYnmPMRLjUOq9ddR22XuuHC4uqRVD1d0pZaLJyrmK4tOaE3dv0U6cTZ4wQywMpG5mbHkM5efV92DB23X0m7evKldu3bZ1uJmZmZUWlpqW+GOff4xHf3UI7YFAPkp12NV2LEv12OicebMGe3Zs8e2gCWY4em41E1ALFhXrlzRgQMHbGtxyzmWTE1NqaioyLZyNzJ8WqU7t1NZBAAAQDjCIgAAm0FJq85SVcQ6ICwCAAAgFGERAAAAobjABQCWYaMvcAGwteTjBS6ERQBYho0MiwAQZiPDIsPQAAAACEVYBAAAQCjCIgAAAEIRFgEAABCKsAgAAIBQhEUAAACEIiwCAAAgFL+zCADLwI9yA1hP/Cj3IgiLAArBRofFPXv22BaAze7KlSt5GRYZhgYAAEAowiIAAABCERYBAAAQirAIAACAUIRFAABWa7ZfTU39mrXNvFdo24tbirAIAECQCVLFxSoOTB0X7bzVWGFAm+1vStuWpn4iHjYWYREAgExVnbo0N6c5M13q1LWWNQqMy2SCYu1Q4/y2zF1SY+ICFUFsKMIiAACLKWnVWRMYH7dVwbTKY5MWFPqyzp9Vf7xL4+NdqvWrg0utRxfV2yV1dreqxPY4G6PW407bVin7O8x9O5wlvWDpVx9T63OX61BHk9+fHnovuPdf2A8EERYBAFhKyU5VjCd0w4llHbUJPZyqOjZqKB4cWg6b74S87k5V2Yrl2dYbS6zHMXtd16oatW8+KaZzgmeiztz/uPY6zZLWs966zHSiQl29Nv2NX1O02+8/pFMtXricv7/t98MwkIGwCABArkyA0ym12Gpcca2pFpoQaS0135frcimz6verg/55j07wjJmU6AtWKltOSdeu2+UCgXNvnQ45j3z9O87t4P13RFVlbwKZCIsAACzFrfJFtcPcDp7P6E5eZS9lqfm+pZZzq5lDuuAmvhK1nnWWudSZPdSZoFg7pMZLdl1hywErQFgEAGBRZmi5SxUPt6rEDXBd8kd4F1hqvl89XGo5117FOqWuzOHpMIEK4uyFIY17N9NdHNEps9z7bRvIAWERAIBMTpAzF6K4Q7rFjyt6aU7H3bLfXh23V0d785wp7edwFplf0qqHD3lDz039O5ZYj8ech3ipcWh+W5zQqsZ9gQteLLPuivltjicq5iuLwX1pkU6cDV4wAywtMjczlnzm8vOqe/Cg7VrazZs3tWvXLtta3MzMjEpLS20r3LHPP6ajn3rEtgAgP+V6rAo79uV6TDTOnDmjPXv22BawAmZ4Oi51ExALwpUrV3TgwAHbWtxyjiVTU1MqKiqyrdyNDJ9W6c7tVBYBAAAQjrAIAMBmZX4jkqoiVomwCAAAgFCERQAAAITiAhcAWIaNvsAFwNaSjxe45FVYBIBCsFFhEQDCbMmwCACbCWERwHrayLDIOYsAAAAIRVgEAABAKMIiAAAAQhEWAQAAEIqwCAAAgFCERQAAAIQiLAIAACDUhvzOIgBsRWG/swgAa2Gjfmdx3cMiAAAAbh1+lBsAAADrhrAIAACAUIRFAAAAhCIsAgAAYIHJqdv14x9HCIsAAABY6D8++XP63boiwiIAAAAW+ie//bo+dP/PCIsAAABYaN/e1/Sl//tFwiIAAADCERYBAAAQirAIAACAUIRFAAAAhFrx34YGAABAYVjN34ZeUVgEAADA5uaHRYahAQAAEIqwCAAAgFCERQAAAIQiLAIAACAUYREAAAChCIsAAAAIRVgEAABAKMIiAAAAQhEWAQAAEIqwCAAAgFCERQAAAIQiLAIAACBUZG5mLPnM5edV9+BB27VyFy5csLcAZNq3b5+9tRDvHSA73jfAyiz23snVyPBple7cvvZhcc+ePbYFwHflypUlP/R47wDpeN8AK7PUeydXflhkGBoAAAChCIsAAAAIRVgEAABAKMIiAAAAQhEWAWAps/1qaurXrG0CWCO8twoCYXETmO1vUnFxcWpq6rdvu8w34cUOd37HRdsGtoRZ9Tc57w0+kICl2c+J1MQHBhyExQJngmLtUKMuzc1pzp1OqKKrdj4w+kxwbLmmzktzOr7X9gFbwewFDemQ878hXSAtAqHcwkOLdCL1eTKnExoRcRGExYJ2Ub1dUmd3q0psj7RXxy91SkMX5qsoJijWDqnx0lm1zi8IbAmzF4akxpjqKsadt4V9V7hV9w51mIqjraC4BZSw/hSvSjnfd1EdxU3K/G4GFJ5ZmbdK56XjzqfIvL3HvXb6CJZ9zdvRq/6ObO8X897I6DfLp/p43xQSwmIhm72ua1WN2pcZAEt2qmI8oRtuY0hxgiK2LO8DsNF5k+ytO6Tx4Jeo8WuKdtsKyolDOtXS4VVQwvpdJWp92OkbsT0XR3Tq0MO8t1D4TAV+vEI7Q17LJa1nU9XGuRMV6uq174HxLiXqAu+Xx83pHuZLlVuiTN3n+F4nPNYm9LC/jkuNGopzakihICxuduPOB2Wn88bmTYmtyB2Ctl+o9tbp0HhgKDr4RcvM0zVd/45zO6zfZ/pOeUNzF0dO6VAd53Vgk6iKaoe9uUCwKthySrp23ftMqepUzH8L7IiqyvzXfd8F+g1T3NAptfjrqO3SeKqogXxHWCxkbgUxy3lYbsXRvunNB1/rcV1qHFJt+ngasOmZIejx8S7Vuh9QLc5HVWAoesX2qu7QKY1cvKiRU4dEVsSmEPZ5Ypig6I5Q+VXBTi8ULpcTLOfPrzdT+pA38hdhsaDtVaxTGVVDU+rvMuNugfMYzRBCtzqvtSy88AXYtMwQ9LgOBYbCzDBZ2lC0zwwnmy9W77dtX0j/XueNd62lRdc6Y3zYYZOwnye1wdMunLdAh20HKu7ulzDvZnYl+9SoLvkj1S43jGb0oWAQFgucOY/ErRr6pX3vUjadXXASVYlaz4ZcKQ1sRtmGwvyhaDOsnKo4OpN525y1F4qF9QeZD8OqKvdcSGCzcD9POq/NDxU7U4vqtLekVQ9XzL8v4omKJSqLzudNt/lCNb+ejovexZfBPn7OqnBE5mbGks9cfl51Dx60XSt34cIF7dmzx7YA+K5cuaJ9+/bZ1kK8dzaYGVaLS92ZQTCsP5P5LbrHo7q01HJYFd43wMos9d7J1cjwaZXu3E5lEQCWy72w5WGCIoCtgbAIYOspadXZrMPLIf0Z9h7nx+0BbB2ERQAAAIQiLAIAACDUml/gAiC7pU7UB7AQ7xtgZdbyApc1DYsAAADYHLgaGgAAAEsiLAIAACAUYREAAAChCIsAAAAIRVgEAABAKMIiAAAAQhEWAQAAEGpbJGJvAQAAAAERJyhSWQQAAECobSYxAgAAAJncyiJhEQAAANkQFgEAABDKxMRtEREWAQAAsBCVRQAAACyKsAgAAICsqCwCAAAg1LZt2xT5hxe+nrz49BXbhXz11IUX9LXR79tWuv/ut35JD/7TX7EtAPnoyvg1/eQnr9mW59d+tUg7St5nW/P6/91/0j+t+x29//3vtT1YrR/96DUlnf/e8/N3eB1Ytddff1MvOc/re3/5LtuDtfDt7/xIv7r9PYpsy49i3m9WRr2w+NZbb+tnb/zM+Yf/md544029+eabMn1vvfWW3n77bXfhZNK8zXCrvP762870lv70k/9Vz0285PaV7/p5/R+P/SO9853bdMcdt7l9APLTmb+6pBdfesW2PPf/Rpn2VJXb1rzWtk8q/sgf69c/uMv2YLX+/uarTlhM6n1Fd9serNarP/mZXvj7V7Sr9BdsD9bC333z71W5u0jbNiAs+qPL5r/ByVQTb7ttm26//XZnuk2RF28+lzTh8M0333IC4xtuUDS3/aDoh8T5/7r/wS3S2vZVPTv+A/f2Bz9wr/7DyVr3NoD8dvrMV/TDF39sW56qD5Xrtz6827bmHf4X7fqzf/W/6DcqK2wPVut7f/9jt7K4/b3v8Tqwaq/+5HV993s/Vnn0l2wP1sLXJ17Qb37gvdrmhLX1YjOiGwx9mYHRhMXbbrtN73jHOxT50Q++mTTB0EwmLHq3vaqiCYiZYRG31v/wPz2ty1e8sFj56/fqL5/c694GkN/+4+mn9MMfpofFPVUV+ke/9QHbmvfQoU+o41//r7r/NxcGSazMC997xa0s/sr7CItr5ZVXf6bvvPAj7d5FWFxLz/7dC7r/19/nBLWNrSz6//Unv7p427bb9P8DEQ2RmQLr6VIAAAAASUVORK5CYII=;" vertex="1" parent="1">
          <mxGeometry x="40" y="163" width="651" height="525" as="geometry" />
        </mxCell>
        <mxCell id="0TGblvGgAYBKJKgvkOkP-2" value="" style="shape=image;verticalLabelPosition=bottom;labelBackgroundColor=default;verticalAlign=top;aspect=fixed;imageAspect=0;image=data:image/png,iVBORw0KGgoAAAANSUhEUgAAAhAAAAGwCAYAAAD49Fz6AAAAAXNSR0IArs4c6QAAAARnQU1BAACxjwv8YQUAAAAJcEhZcwAADsMAAA7DAcdvqGQAAHb4SURBVHhe7b0NuFzVed/7ngMYOY4NtmMnqXMvtpBsYZk0UUyoiLlcTI4vCGJbl8h+6tb2ad2gmDQgenMVQ2JdKgK4NPdB0FtRgWmVpI/7FEKkJOKjPsaUKkZJsOWbSzAf+jA4tZO6JpFCUgvrY+569+x35p017/rYM2tG55z5/7b+s971f9f+WnPO3mv23nM09UM/9EOtfV/7Ip040aJWq60TJ0504raop864qCqFHz/vCvrqk7vq2uDMp+Usxn1i0Ddh0Ddh0Mdh0Ddh0Ddh5mvfTLmpKqdcVGt6WsrpbvnyX36tdfz4CTp+/Hhn4MCDiSrmSQ0ceOzQGUDUJQAAAAAWDzxAkJLDzqBharqKTzmlXU4d+u9/2jp27JgbQJygY8ePVQOHzgCiM3DoFVMXAAAAAFigyDmd6Q4cqqIeQHSvPMjg4dRTTqVTTz2Fpl76iz9xA4jjdOtt/6Y9BwAAAABAgH+24R/RaaeeRlPf/ube1tFjx+hf/t+fpdvv2FanAQAAAAB6ue7a9fSLv/BRetWrTqNpvnrBzz8AAAAAAKRoPzPZoml55gEAAAAAIIV88WL6RIsHECdqGwAAAAAgjHxrc1p/swIAAAAAIEb7zgUGEAAAAABoQPtPPbRo6sUDe1qvvPIKbf03n8v6FsYTX/xdeu4LW2j6r/e7WmrgMUUnXreM3vHTG+iC936g9gAAAACwEOFvYXz8o2vp9NNfRVMv7H+iGkDcte0/JAcQPHiYenyWVr/lUO3kseebZ1Lrou0YRAAAAAALGB5AfPQffICWLDldbmHUmQTPzt2eP3g4/Q1Eaz5P9MMX0d/7O4fo6c/fUScAAAAAsFDhcUPjZyCmXz5IR1un0onvfxvRzO8QXfTviE57XZ1VLHkT0RWPEf3Qe6h1yhI6fPwMOvHyn9VJAAAAAIwD/jPUX/nKV+paP5yTP2Gdi4wbGg0gjpx4Ff3VsTfQ997963T0L593I4rTiN75yTpbs+TNbvDwRaIzllPr82vp8At/SN9rnR5fx8Pr1d/cXk8P17bNw7R+6qfoDn4EYyTspzt+qvv3v6d+6g7npBj1NgEAAADN+fKXv0yrf+o95iCCPc5xmybw1YdqAMGV3AHENLVoyfR3aeqVl+j4mSurByTp9efUWcerf5DoZ9zg4XVnU+uLH6G/OfxSNXiIsv8O+qk1RA/VA5nWvnfS8/ERxBAkTvS8LVPL6Wu/Wm8L6zeIHhzZ9gAAAACj4yd+4idoz5f+oG8QIYMHznGbJrTPjzwmaMDp06/Q6055mab+aCMd/dYeOv7ne4jO/jDRip9zg4f6ysNrl1aDB3rnL9D3vX8X0amv5u9i0GlTR+uleOz7Gj1xwTtpeV2lZdfStZfV8VjZT3d8fAO966EWbdPrP2nbAwAAAAyPP4gYZvDA8OCBBxGNBhDHW6c4TdOR7x2n7/5/n6Xv7fkVokfeT3ToOaLLH3WDh7d1Bg/0w/8Lvfz4Rpo69rd05qmH6NSpwP+3cdkH6aonNtDHrcsC1RWBxK2NYJveWxHrH+arD2vobnqCNix33npvafsfpPueuIo+GBss9KyLl1n7PsF27Ssg69f/lPPX1x4AAAAwWvQgYpjBg2Z69YVX1mGa77VOo5eO/QAdab26qn/3xKvpxHe+SvRTd3ZuW8jg4fDn19Mp3/cmeu1pR+jl46+tBh82l9G21j760H3L+0+2y++jD+2rbyU8RPRrfYOMUBsePCyn+z60r+07bbuM1/MQXUUX0BZu33OZoUZfCemD19W+QlEtc98W+tM11u2QVLsn6E/f+Rsuh//5FAAAwMJles/uB+owDV9FWDL13Up8W6L1qtfT8TWPEp3xjr7Bw+n/88X0/Rf9S3rlf7qSjrmBBw8+wiyja78kJ9t6ELH/efpTuVrAn+TX3E1PfG1fu7kQalNfTfjVa5fVDTN54mvkraFLtS51hWLZtfSrVz1B/ial211AH7q84XYBAAAAQ6BvW+jbGcPQ6BYGP8fwulNfrsS3JV7zd/8J0dHv0vHPX0lHX/9uOjr9Wjr8n66iU171GnrVG5bR33xpE71ysH1JIetLIu5k+xtbLqC7d8pliKu6D1eyrKsGWW0yWHY5feiCu6mzagAAAGAR4D/z4D8TMSiNBhAdpk6l01Z8lF51+E/o+O9dRC+/8CU69Md30qEd76ejX3+QTtv3Wfqr33k/ffdP7q6aV1ctpo9UcR8P36Eu7++nB+97gi5453J3Qn87vYvuNm5bKEJt6sFAdN4+ltG1v3oV3S1XQIT9bvu4Xq+rM8Bw/q/dbTwzkdsOAAAAGDGhByZLDCIaDiDq6wj8tx9OfQ2d+uZVdPRHPkCnrvplOv3sK+i0M99GZ6z+FB1757U0/eZ302vfewd9/w+9k157ysvdeX0uezt9TW5BTC2nDe96iL5U3Xq4jLbt20K0of1sRKW+pxZDbfiWyEP0LuW3Z72MPnhV4CFK5rJtndsoneV9nOjy6uTfXlcnVz17sc25PrntAAAAgNHy7ne/u2/wIMgggtsMwtSB53a3jhx5he65977k/4Xxb6//X+kfv+1xoh/9JWodfZlaZ3+EXv6T36DTl72fjr30NTr9Lz5Px1Z8kl7+4gY65XVn0et+8lpqfeMR+pvnf492fONH6ROf+c/1kgAAAACw0OD/C+PD69a0/y+M2stixcx17f8Y62t30ZFXL6NXDn+Tvvdnj9Gx//qf6dWvIvrrQ39Z/X2IV//oz1V/M6L1t39Of/Odb9CT33wtnfO+6+qlAAAAAGCh0+gKBMP/I+czc3fSsb/+RvXQIsMPV56g9t+IYPhmxenTR+iV1qtp6rVvo3e97xfwP3ECAAAACxx9BaLxAAIAAAAAk8nAtzAAAAAAABgMIAAAAADQGAwgAAAAANAYDCAAAAAA0BgMIAAAAADQGAwgAAAAANAYDCAAAAAA0JievwNx4+bbahsAAAAAoJcbN23E34EAAAAAwOBMr77wyjoEAAAAAMhjes/uB+oQAAAAACAP3MIAAAAAQGMwgAAAAABAYzCAAAAAAEBjMIAAAAAAQGMwgAAAAABAYzCAAAAAAEBjMIAAAAAAQGMwgAAAAABAYzCAAAAAAEBjFtcA4uBWmpnZSgfrKgAAAABGw8ADiJkzz6QzlTbM1YlccLIHAAAAFiyDX4E47xbae+gQHWLtvYWevq3hYGDp1TQ3dzUtrasAAAAAWDiUuYVx4Hl6cuXyajBwcOuMujIxQ1vrUUWPz1ceeq5AzNGGzjzW1Qwjz/N3vA2uhYeVr9e5dUPX69subgcAAACAKIMPIJ68gVbJiXfd03TLNTOVvfTqufZVCdb9K+mGO91p2p2419+wku6v/ftXPk8HqtbMQdo6s45csjPflvaiaqy8G1CsuoFW1t7eW56mdT2jjkjebffzl7O/hWai2wUAAAAsDvhcXZpCtzDW0o719ad3/cl/3Xaip/fRwaXLaSVtp3X1p/6ZLe7kzW2Zg4/QDrqF6vFHP1b+4D562q1fvKWXrqXztj/YvQoRyyufYtsFAAAALAJGMXhgytzC4BPxk+7TOw8eVu2gtXtlYHELnVc1mKEt1WDjcnqwGlwYtxxOCvN1uwAAAIDhGdXggZl685vf3Hps7nN0z7330Y2bb6vtNPwswTZ5CHJuA51529tp7zai9eup4/PzBat2rK38Ox+5lLZcXbm0dcY1+tW1tOPXuO2l9MjMKnp+o3/rQuD2fp6fiWjf1mCvWs/zG+nQNfuIF71tbjndGc3X2+0GPBv87do2R1UVgEXEzp076wjEmJ2drcrt27dXJQCD8vGPf5wOHz5c1wZj0N9bWbc/eOAP9sNy46aN9OF1a2jJktNp6sBzu1tHjrzSfADhNuzJOna/du5c3b78P7fhTOI7F8x5/Mv49Ns7J3T5lTzvlr00d+kj3ZN5deXihs7yZusTfwcrf7b26vVzO3OZRr7y2wORnu3C6AEsQvhAtKI6OZ7idLoqdfwqp1PrMtSmSVvdJtz2Fff6Padjdcn1416p41BbHVtt99Dfc68Fec8f2rtt7b72Q21ibfv2xtpbHYfa6rhJ2942snmpXQq1adJWt1lAXUTnt1pFBhCzsx+va/m4VdPU1FRd6zJvBhAAgIVDNYD4R//IRXLYtQ7P1mFZ2vjz+fnYMuJ549g79PHbarunVXYAMXWhGkCMtosc/h7qPSvZS3nLkM2TMrX50safz88voi6i80+cKDSA+Fhdy6fVmhrLFYgyz0AAAOY//ImkksR+KeK6FntaVl6XvtxLT1lOvMjc8iem/5B+zOkcp7OdznL6Yac3OJ3htMRJmH7NH9L0GU5vcvoRp7Oc3u50rtOPOf3kH/Jiu6rX0ZHOSV6XvtxLT1lUPA1b9k+pllzX8icrr0tfqfxQ4o4ftvRVjNYAalNiwBADAwgAJgo+sIUkhHxBPCvHhHzBzqeWNspS1EGbWkLIF8SzckzIF4L51AJHWYp6a76EkC+IZ+WYkC8E86kFjrIUFcUaIKTUZZSDCAwgAJgUpt2v+7Q7uvWVWpYXEi/TqltlvqZUKbGVC5Ux8e5ZpUjodIOUWpYXEi/LqltlI02pUmIrFypj4skqu/lYNuSF5G9RbMsbqXpD61JiKxcqY/J/gKTU+WKcGEC9jGoQUXIvAQDzmc7lVYm1J/Jzqfk4Fvn1cuJFhzxdhrxQzm8jVCn2pNTyc7pNyBP59aKyLu6Lp0sda0+m2HzdadAlhDyRXy8qfgNCni5DXihntimFdYUhpX5GMYjAAAKAiYIPbHJws8pQjol5mtx528SWoAkvodez2vkel1qMlBW+qctQjol5mtx5O8QWooktRHtWO9/jUotpl/1ObxnKMTFPkztvh9hCNLGFaM9q53tcajFSFsMaIKQ0HjCAAGBS8D8hdSQ5LnWsS4m1xONSx7rN8OJFhjxZtfZS+ahXI/WOxONSx7qUWEs8LnWs2xSR9bldPJm0l8rLZHn2pFv6c+m5JS8STybtFRV3fMiTN0h7qXzMq+qlsAYIKY0HDCAAmBR6bt7nxCnxMqXMjePi28exWG4xh+KUePf8uNrlOhaqTWafy1ickiyLy9w4Kf1EgBVzGYtT0k8wSCxTO/azsTglveW5cVLVmxmJuYzFKckPjI6rHwwVF8N6xiGl8VByLwEA8xn96cj9y4+5jLWx2llxc/Hso4il7sdC5UuZE3MZa2O1s+KBpD+vl4ylbsXtKaelxFzG2ljtrHggcSePIpa6GZfCusKQ0njAAAKAiaI+yFVicmImFDODtBue2FqlbsWxXIdQMhQzoZgZpF0RYiuWuhXHct2oPxOOmVDMDNKuCLEVS92KY7miWAOElMYDBhAATArVJVZ3dKvEsV+XOCVeVqjOsdQlthTO8xXgUJ1jka77OV+8e5bPkq7g+DWv+UN6zev+sL15kpNd03FKvEmhentze2NL0bx/Qd+/2C/SdT/nK3bjQaZ2bLlSlzil1JZKXWJL0Ty/oaG6vPniWbEl+UGxJD8wEhfDukWR0ngo8qes77xrNP/xzDWfbP/HNj5Y32BgfWWZL+vLofpT1v/0n7pI/iiw/CFgifUfCOY41CZnPvmDw7qN73WXof8iMMcs+YvAlicxl34b+QvDlid+ahmdTe7dzHbp76rVJme+Zl3ksLZU9sbyJObSbzN8L8km+5vJpb+rVpuc+RZ4F9H5L79c6E9Zf7Cu5dNqnTH0ukMU/78w+IC56foNda0Mm2/dEj1Aryi8vmcT69u0t/D+rUrsX+H1PZtY36azC+/fgcT+FV7fs4n1bfpU4f37TGL/Cq/v2cj6cqgGEL/4iy6SQ7GUOYd7lhy6LU/7oeVZXjuuj7d9x+eQl3M+sLyc+VidTZXy5HeRQ7ZufvSSbKqU6CIV1/75f/3XhQYQH6hr+bRaZ45lAFHyOgsAYEEwpSRYHpPrMblePsOshT3tSz3kad80LY/J9ZhcrxHDrIg97Us95HX9fsf2mFyPyfUaMcyK2NO+1EOe9otgPeOQ0njAAAKASUHu0XZuxrMsT+csn5cV8kWWp3P9Pt86Dvl+Tjyd8z0R74blxfzO5rMsT+csnzcp5IssT+cs352dwr6fE0/nfE9kPb0gk+33O72ezll+aGusPdCezll+9UaGfD8nns75nojfbMsL+cWwnnFIaTxMr77wyjoEACxq5OtlPWJfJJ5I5/y8nxO5l2Te8tOSRcdyOXndxvdN6UWJJ9I5P+/nRO4lmbf8LMkUy/GUyvMU8vunnKVYeT8nyslbfpbkDYjlcvK6je9XuVJYVxhSGg/Te3Y/UIcAgMUPH9hC0qTympw2TCqf0yK9Np0PtbPasCqshEiTymty2jCpfEVOo9QKdT7UzmrDsl2RJpXX5LRhUvmKnEapFep8qJ3VhlUUa4CQ0ngoeZ0FADCfCV5v95XbTsTLtpTbrlf+1WCW1Y5ltbUUutLsa4F0kZNc3Ney2rGstpZksnJatusrt53I2nJWbrs+WW+w1Y5ltbXU5AepGNYtipTGQ8m9BADMZ6zLrKa4bRO5F1NW28FkLt7JahuTtYyBZC8+LPdiymo7sEKT1TamMpO15JhCk9V2YJlvgpPVNiZrGb6KYV1hSGk8YAABwKRgHeSKiJd9cmRuznyUvflj0sKYrC0fm8w3bUgVwxogpDQeMIAAAAAA5i3WACGl8YABBACTgty/Tcp9eioiXmcZWbeZB5G5u4PI2t1BZO/ugPKfFhhUZSZryYPI2tOBZf1QDCLzh8JTMaxnHFIaDyX3EgAwn+m7zMqeJfcSlTWPJffSeJ6u9OxW3pKex1LjeexZ7LZa1jyW3EvjeXqkJytvKTU1m8dqzUpN1jyW9GTlk9KdbOUt6Xks5cxTDOsKQ0rjAQMIACaF6sDGpYjrIel2vtxLdluRe+nzbMlirZyvzibUstqw/HZafe20JZ4l3c6Xe8luK3IvfV5QTU6p/mS1YcWm3na9tfCk2/nyJ6uNr9x2laTzrZyvzhtVy2rD8ttp+e2KYQ0QUhoPGEAAMClUBzr3K9+j+mDXp1iOxcsTiael8347K9cWpy2f1ZldKZbLkX9LofLndxc5xU6j1hTL5Uz+bQXLsadYjqfcLbfaWbmOuBMtn9XpZKVYLkfWD1IxrFsUKY0H9ysAAJgIeg56XPc9USgnvp/Tvs5b/mDixYV8Kye+nw/5Vs79a0t7olBOfD+nfZ23/IEVOq3KFPJlSvn9udAcPIVy4vs57eu85Q8s7vSQb+XE9/MhX+eKYV1hSGk8YAABwKTQOeDpWHsi8ViWr72U73thn+1cv1pEwMvxtadznTpXdV08kXgsy9deyve9mF9Nub5MlsdTyremrm+1kDn9nOVrL+X7XsyvOi/Xrzo64OX42tO5qiyFNUBIaTxgAAHAxFEf5CoJlsfkekyul88wa2FP+1IPedo3Tctjcj0m12vEMCtiT/tSD3ldv9+xPSbXY3K9RgyzIva0L/WQp/0iWAOElMbD1IHndreOHHmF7rn3Prpx82213Yw779peR2W55pOzddQL1jcYWF9Z5sv6cti5cyet+PSnXXSK06uc+LMDlyz2TlMxl1yXmCXtU3lp4y/P97rx99zrUafjThyz+C4ul+L5eY7Zs+KQp5cRW15nk+dPFzmsrT55vSSbjC5Ssdf+/G98gw4fPuwqg8O/t7OzF9S1fFqt5UOvO8SNmzbSh9etoSVLTi8zgAAAzG+qAcSmTS6Sw64ckv1DuH9Y1jGXsUO831YvO9zWOg7Hjvuhtiw5fjdpKzGXXO9snrUb8V1pl+W7yCFbZ+2Ntbc5e96krcRcHu1snmy6jlO7wuUEdBGd/+KLhQYQq+taPq3W28cygOD3EQAwCVT3aKW0xDndTre1cn5dxym5lz6vLU6F6qlcqK2Vk7rEHbHteyJZhB/7dYn9uo5Tci99Xkf+EwC6nsr59VhO6r1Tv9Od9Nw69usS+3U/F1O0LXdgqJ7KhdpaOalL3PFKYd2iSGk8YAABwKRQHdjcr3zP9w9zYpnXks7FYqlLnCeeJRRL3Ypj6nxdMxQvrC5y0qdRP5a6Fccm/QXM/phf4y3649iac7aWY6lLnC3u2FAsdSuOKfWDVAy+3NFU48H9CgAAJgI5wPGxLRpzqWMuJQ618ePBxIsYNuZykLhHnIrF7VntfKiNHw+s0Om0SSxT07g7pVpzqWOZfD8WDyzu6GFjLgeJO14prCsMKY2H6dUXXlmHAIBFTXVgkzIW+x6XVlvxLbkXMx5OvKhYnJP34z6Pw1Tse+3Zw74l92LGQyt0OpbY8vy8H8vU9kKtwnO0S6ut+JZ0PtW2kbjDY3FO3o99rxjWACGl8TC9Z/cDdQgAWNT4B7qOJMeljnUpsZZ4XOpYtxlevMiQJ6vWXiof84LiZlLqWJcSa4nHpY51myKyTq/iyaS9VF4my7Mn3dKfS88teZF4MmmvqLjjQ568QdpL5WNeVS+FNUBIaTzga5wKrK8sWF9ZQuvLofoWxq/9movk2fXQ8+x8V5PLUBvLE9+aT5Znee22+gF2ifkurvZY6gF3s61u43vSNjaf+J1N1Zsc3vz+NpYnvjVfuoscsT0QT/bE2quyvSSbqjc5tvl+G8sT35pvAXYRnb9vX6FvYfx4Xcun1frRhfM1Tj5gbrr+r+paGTbf+vroAXpF4fU9m1jfpr2F929VYv8Kr+/ZxPo2nV14/w4k9q/w+p5NrG/Tpwrv32cS+1d4fc9G1pdDNYC4+WYXySE4digWX2LxY22bnDJ62/rHZDkOR47NZlvdRre1zguxNhmb3PUlFj/WdvAucsiWylbLHvhbr/fKaqvb6LbNeilnk8WXWPxY20XURXT+888XGkD8WF3Lp9X6u/gaJwCgINWl1VQp4rpIe03LwcWLsHyWn5N6TmmpJ8fVWClqz9br+21zyqEUu9jv56SeU1pTN5c7N9dF2mtaDiXuaMtn+Tmp55SWdK4Y1i2KlMYDBhAATBT1Qc6UEPIF8awcE/IFO59a2ihLUYU2fAkhXxDPyjEhXwjmUwscZSnqrfkSQr4gnpVjQr4QzKcWOMpSVBRrgJDSeMAAAoBJYdr9uldyR7hOqWV5lnhZuvRzIt1Gl83Ff3MhVTYR72qo7HSDlFqWZ4k3S5d+TqTb6HIg8d9dSJVNxFOo7HW0LM9SbMvYE+k2uhxI/CanyibSPzh+WQy+L9JU46HkXgIA5jPVpVW/1Iq1CeW41BLPLwcTzx7y/NKSbqPl53racFWXWn5OtwnluNQSzy8HlnWhXzy/tKTb6MnPddsMNlc4x6WWn5NyYHEnhzy/tKTbaPk53aYY1hWGlMYDBhAATApyYONjm1lq6ZzVXks8KS25lz6vX9xMlynp9pZ0G799bD73zy61dM5qryWelJbcS59nqulpVbe3Jt3Gbx+eL6elzlnttWI5USzXI+5MXaak21vSbfz2ofmKYQ0QUhoPGEAAMClUBzb3K98j8dSBr7Fk2Vz6cZ54lpBXLU5Je1ZszcO3BvzY8irNzy5ysk6f4vmT9qzYmodvD/ix5bUjrd7sYJPeMj/OFndsyKs6XUl7VmzN0+QHqRjWLYqUxoP7tQAATARyYKuk601iLgeJ88WzWb5I5604ldcxl37cEduDxFwOEjdS6vSq81ZseaFYJh23p1A2FXM5SNxI3LmWL9J5K07ldcxlX1wK6wpDSuMBAwgAJoXqwMblMDGXVqzbxOLy4sX7cbVKL86WLG7QmEsr1m1i8UhknZJl0nHe5C+paSyTH+s2sXgk4jfBj6s3xotzVQxrgJDSeMAAAoCJgg9suWJ0HEO3CcVMzrK6xJYaqvu+JjZPJyeVHDE6jqHbhGImZ1k9xBYcqvu+JjZPO5YoR4yOY+g2oZjJWVYPsQWH6r6vic3jtx0aa4CQ0njAAAKASaH6DqLIHeWKipfP0rGW3y4ufuZAx1LXsa77+ZikC3Tdz1WSTS4l2Wwda/ntkuLnDnQsdR3rup+PSSZd93Ndp5T0Fkus5bdLit9UHUtdx7ru52OSHxRd13ExrGccUhoPJfcSADCfqS6tcimxJcmH2uu8lnuJ5puLF2f5rM7qPM/Ka0k+1sb9a0t7Wnoxus6xrvtyL9H8QIpd2NeT9qy8niQfbtN0CX57nddK5QcSd7rlszpviudZeS3JR9uUwrrCkNJ4wAACgEnBOshV4pxIPF9WXs+n5V6SbZpLFmnlRFYb7UkcahOUbi6eLyuv59NyL8k2AynnFGy10Z6erDb2lNPSyuv5tPRk5QeWdLyVE1lttCdxqE3ll8IaIKQ0HjCAAGBSqA5s7le+kj7Yief7g4rXJYp5rK6v7Vyvifj2gF8XaX8ed5GTnnK9JhPfItBT97aB5erJbjn4JHui98byeNJ+T+flek2U+4NUDOsWRUrjwf06AAAmgurAxqXEIvFyfO3NL/Hm6Vjkt0n5tWV7Ob725p306VZPfhuZbD+/pe1rb96J30Qdi/w2Sb8U1hWGlMbD9OoLr6xDAMCiRh/cguJ2IvFY2k/l/XoZ6dVZvq5b+ZjfSHox4rG0n8r79WLSk+XrupXnKeTnT6ElaD+V9+vFpN8Uy9d1Kx/ztYphDRBSGg9TB57b3Tpy5BW659776MbNt9V2M+68a3sdleWaT87WUS9Y32BgfWWZL+vLYefOnbTiX/9rF/FFx9NUyTqlLk9VsdUmlreWp/1w/qh7ZfGFV4mPOx2ry1heYr+N39bP+7G04WVGN/nkdJEjtNUnp5dim4wucnLLPP+P/5gOHz7sKoPDv7ezsz9S1/JptS4Zet0hbty0kT68bg0tWXJ6mQEEAGB+Uw0gtm51UZNDuBXLfE2XEZ7POg5LbB3fY+eDYedjVZs3v7rIYW3psHs76HxHq81DF9Wy5nM6/4/+qNAA4u/UtXxarZmxDCCqfgcATADVpVUpJfbrVqyl55E4JvfS5+WLZw/Vq0V79VAsdYmj4qY69utWrKXnkTgm99LnNVLs4r9MoZyOpZ6e/DlCSwgtTc8jcUy57YLiTg7VqzfAq4diqUscUzGsWxQpjQcMIACYFHoOcLrOsdStWMu9ZMV+3YqbiWcNxVIfJtb1SmzpWOpWrOVesmK/bsWNpU+1fiz1YWJdD2etWCvUxo/9uhU3FndwKJb6MLHUi2ENEFIaD0MNIM4666yxlgCAIagOcu5XvlPquD7oJb+nKMtJxVKXOF88W8yTuFp8JLakv2nnx536/O8iJ+sUqj2JZQrF1qS/iOnH7bq4Xadb+rE15WwZx1KXuJG4c2OexNWbEIkt5fwgFYPvizTVeHC/CoPBJ/UXX3yxisdVAgCGoDrISaljy9OKeVz6cXPx7CFP52JeKh/y+sQpP7Y8rZjHpR8PJOtUKp7OxbxUPuT1Ttq1WlpzxTwu/XggcSeHPJ2Leal8yPNVDOsKQ0rjYeABxDhP6rgCAUABeg5wfl17XOpYe1ZOx7psLp7V8lmxHEvyutTSXk579y/stWexPSunY10OpNhpNnUKlrwu9aS9dPvYErj05xTPyulYlwOJO9jyWbEcS/K61NJerH0xrAFCSuNh4G9h6CsQ+FreYGB9ZZnU9eVQfQvjs591EX9m0M+1y/PsXGo/1CbVVsd58/FD6/JguzzwzhdhvYfaO7HfdtD5Qm06m2ftRv/m97cp30WO2B7k7G3ZXpLNs3bD2ny/zQR0EZ2/e3ehb2G8sa7l02pdsXC+xskHzE3XX1vXyrD51js6B0w9WGF4fSsKr+9ZtT6fav/2Ft6/VfH1rSi8vmcT69t0duH9O5DYv8Lrezaxvk2fKrx/n0nsX+H1PRtZXw7VAOLee10kh93UoTrkp/La1zGXdj52TE4ds1PzSezndewvo2eTu5vZLnO6oHwXOawt9fc2lE/NJ7Gf13HvMvQm683kMqcLJqCL6Pz/8l8KDSBeX9fyabXeP7+/xjnO2wp4BgKAAsil1R6JP4rSl3vp8/LFszf1RSFfcr7XI24yqtKXe+nzGil04T/myxTyebK87iTZUZS+Qn62uJOb+qKQL7meeimsWxQpjYeBBxB4BgKABYY+uFUSr0Qp8uuW3Euf5/4F6k18rVBO6iG/R2yXKkV+3ZJ76fMq+adPqTfx9RTKST3kdye/5TClyK9bCrbhzrPqTXytUE7qQb8U1gAhpfGAKxAATArVAc79yncOdhL7ZUyyHL8Ucd1qky+exY9jpZbv6W/Y+ZKcXy6ALnLSp0+JY6WefC/2pUv/S5rtUs9ht4hPqa3kutWmkbhj/ThWavneID9IxeB7JE01Htyvw2DgCgQAC4zqgCelVtOc73GpJZ6UIa8ttpp4fpnrcakVzLEV8nJzvsellnhShryOrFNozPPLXM+f7Fx+y/Zk5XyPSy0rZ3kdccc18fwy1+NSK5QrhnWFIaXxMPAAAlcgAFhg6INbJe1JrMuUpyWelKMVr0aXfs7P63ba07I8968/1mXK0xJPypErdrqVSeel9D099Xva8efkMuVpiWflRiJ+M3Tp5/y8bqc9rU6uFNYAIaXxgCsQAEwKnYNcKLY8ibnUMZc6lrwl99Ln5Ytnt2Lfq1ZTx77v5624R5yyYsuTuL24dN6Se+nzGkmfcq3Tr3gyWb6ft+LulGph5bnUsUx+3lIqnxR3shX7XvVm1LHv+3kr7nilsAYIKY0HXIEAYFLoHNz0jXwdN5FeHsdSt+J88Wy5cbWKTOlb2DnxPO4iJ30qTcVNJuvJhnAcatFk0lvob7kfNxJ3bm5cvRGZavKDVAzrGYeUxsPAAwhcgQBggSEHuB5p34+lnhNLXcdWO4nzxLOk4ljOj6WeinvEqVAs9ZxY6jq22kmcrdApV8exnB9LPRV3p1hrqefEUtex1U7ibHHHpuJYzo+lHouLYV1hSGk8TK++8Mo6bAauQACwwJADXH2M661bsV/X81mxL/fS5w0nXqQVWzmp6ziWk7iSNNd1K/brej4r9uVe+ryhFTvd+jmp6ziW663ltezPSd2KfcVyA4s73oqtnNR1HMt14lJYA4SUxsP0nt0P1GEzcAUCgAWGHNhM6TzHuXWJrXpM7qXPa4tTufVqMZn1nFxU3FTHuXWJrXpM7qXP68g/rcbqMuXUdRzKhafUEkJ1ia16TNG23IG59aqzM+s5uapeCmuAkNJ4GPgWBq5AALDA6Bzc+Ka+f2M/Vbeklxmqa0/qaXFzv669UF08XffV86xDXfe9BdBFTv7pU6ZUnSe/7k/+Uw1c7/X6nXTdmlJb5m+91LPEnerXtReqi6frvlI/SMWwnnFIaTy4X4HBwBUIABYYnYMdx7pueVJv6ul6vnjWQbxqlQFP+76n66Yns8Y8qTf1dL2RrNNnjieT5fEU8vyp1wvNpT2pN/V0vZG4gwfxqjcm4Gnf93Td94phXWFIaTwMPIDAFQgAFhj6QFcp5Pm+eNrXnviWx/L9fPHsluf7nVUpL+SnvB5x2vJ8v7so2xPf8li+30jWKVcmy+Mp5evJ8rqTlYktRfvaE9/yLL+RuJMtz/c7b4jyQn7SK4U1QEhpPOAKBACTQufgxtfeReqA15O3fJZejhb7fk48LfcSyLEd8kUhX+d8Pya56uxfjZ6nXeQUOpXqKeTzFPJjk9ys6L0hYbvdKeTzFNoCa+vE04rlqs4L+aKQr3O+H5P1g1QM6xZFSuPB/RoMBq5AALDA6BzwOBaJp6XzVhs/L3IvfV4z8SIsXySbEMtppfIsM69nFU9L5602fl7kXvq8xgqeOmvJFMvpKZXnqT+fmkvnrTZ+XhTLZYs72vJF8kbFclqpPMvPF8O6wpDSeJg68Nzu1pEjr9A9995HN26+rbabcedd2+uoLNd8crYqebCiBxGjXp8P1jcYWF9ZQuvLYefOnbTiAf7GFX9mOFWVOj5NxaE22jtFxTnz8fL788fcK4s/N0l83PBi8VEVW3kd+239uGeTu5vZLk9OFzmsLT15vaQ3WW8ml+iits7/vd+jw4cPu8rg8O/t7CzvRDNarX889LpD3LhpI3143RpasuT0wQcQ/kkdADB/qQYQv/M7LtKHYn34jcX6lNBkPonjpxTj2NuJ5fgfyodiKfkY32Q+VmfzwpvcH4+2ixzWlko8/l6SzYttsh9PWBfR+b/7u4UGELzAZrRanxjLAKLq90HAMxAALDD05daxitc9mMzFLUbZu5+pyZisPc+W2ekjVjF4VNJU42HgAYSc1MdR4koHAAWwDnJZ4nkXpszdGYXs1S8QjWey1rxgZL7pCRXDesYhpfEw9BWIcZUAgCGxDnJZ4nkXpszdGYXs1S8QjWey1rxgZL7pCRXDGiCkNB4GHkAAABYY1kFuLOJ1DyZzcYtR9u5najIma8+zZXb6iFUM6xZFSuMBAwgAJgXrINcjbmPJvZiy2lpyL43au3+1rJylzio8NWmbJXuRdluW1daSe2nUvlLTU2toatI2PVlLY4Umq62lpu0rScdaOUudN8JTk7aiYlhXGFIaDwvia5w+WN9gYH1lmS/ry6H6FsauXS7izwz6GXb+Ep3E2g+1ibWVL+RZbaTsX5//ADs/MC+xlH7Mh0jL9+fTy9J+rE3GJvfHo+0iR2yrrb1ija6XcjbZjyesi+j8++8v9C2Mv6lr+bRavzC/v8ap4QPmU9dvqGtlOPfWLdED9KcLr++mxPqe2lt4/1Yl9q/w+m5KrO+pswvv34HE/hVe302J9T31qcL795nE/hVe302R9eVQDSAefNBFfKhNHe5Th/BYPrTscF4fh/kYLLEuQ3kdp84XqXOALLvavPnVRQ5rS2UPQnvi+1yW6SXeJHRRLT+ul33+ffcVGkC8XNfyabX+6fz+GicAYIHRubzqfu3n4d9pZjvki0K+zvl+TNZfIK40P7vIKXQRX08hn6eQH5vsP1ptu90p5PMU2gJr68TTiuWqzgv5opCvc74fk/WDVAwelTTVeHC/BgCAiUAf8CqFPN8XT/vaE9/yWL6fL57d8ny/syrlhfyU1yNOW57vdxdle+JbHsv3G8k6lcpkeTylfD1ZXneyMrGlaF974lue5TcSd7Ll+X7nDVFeyE96pZDnGppoPEyvvvDKOgQALGo6BzeOdd3ypN7U0/V88ayDeNUqA572fU/XTU9mjXlSb+rpeiNZp9EcTybL4ynk+VOvF5pLe1Jv6ul6I3EHD+JVb0zA077v6brvFcMaIKQ0Hqb37Oa/jw8AWPR0DnTWtflU3ZJeZqiuPamnxc39uvZCdfF03Zd/u8K/8lxp/neRk3Xq1V6ozpNf9yf/BkT/zYp+J123ptSW+Vsv9Sxxp/p17YXq4um6r9QPUjGsWxQpjQf3KwAAmAj0wa5POs9xbl1iqx6Te+nz2uJUbr1aTGY9JxcVN9Vxbl1iqx6Te+nzOvJPpbG6TDl1HYdy4Sm1hFBdYqseU7Qtd2BuverszHpOrqqXwrrCkNJ4wAACgEmhc3Dj2K9bsV/X81mxL/fS5w0nXqQVWzmp6ziWk7iSNNd1K/brej4r9uVe+ryhpU+r/inWz0ldx7Fcby2vZX9O6lbsK5YbWNzxVmzlpK7jWK4Tl8IaIKQ0HjCAAGBSkANbj7Tvx1LPiaWuY6udxHniWVJxLOfHUk/FPeJUKJZ6Tix1HVvtJM6WPsWG4ljOj6WeirtTrLXUc2Kp69hqJ3G2uGNTcSznx1KPxcWwBggpjQcMIACYFOQA13PzXsdNpJfHsdStOF88W25crSJT+tZ0TjyPu8gpdDq14iaTfmIhHYdaNJn0Fvpb7seNxJ2bG1dvRKaa/CAVw3rGIaXxgAEEAJOCHOD42GbGlicxlzrmUseSt+Re+rx88exW7HvVaurY9/28FfeIU1ZseRK3F5fOW3IvfV4jpU674slk+X7eirtTqoWV51LHMvl5S6l8UtzJVux71ZtRx77v562445XCusKQ0njAAAKAScE/wPExri/WZcrTEk/K0YpXo0s/5+d1O+1pWZ771x/rMuVpiSflyCWnXOvUK5POS+l7eur3tOPPyWXK0xLPyo1E/Gbo0s/5ed1Oe1qdXCmsAUJK4wEDCAAmhc5BTq7JW9fmY7mYZPl+aXlcdsVWyNOl5elcjuTqsl/68TzrIifrlCqeLnVs5XImuSHhl72xlZUplotNsS23cj3ijgt5urQ8nctRzg9SMaxbFCmNB/crAACYCOQAx8e2TuxLcrHSknuJ1vPFs1o+S3KhUos9kW5jlX3ilO+JJBcrLbmXaL2RzFNoLcmFSi096TZW2TvZbntKLYlLS34u1jYp7mDLZ0kuVGqxJ9JtrFKrGNYVhpTGAwYQAEwK/gGOj3HFSpFft+Re+jz3L1Bv4muFclIP+T1iu1Qp8uuW3EufVyl0im3i6ymUk3rI705+y2FKkV+3FGzDnWfVm/haoZzUg34prAFCSuMBAwgAJgV9kOtI/FGUvtxLn5cvnr2pLwr5kvO9HnGTUZW+3Euf10ih02rMlynk82R53Umyoyh9hfxscSc39UUhX3I99VJYA4SUxgMGEABMCvrg1pHcyPfLJpJlc6klnpSDixcRKnNk3arOyVVaGF3kJKdWq8yZBn+qwc/areKT3mKtWK6xuKNDZY6a/CAVw3rGIaXxMHXgud2tI0deoXvuvY9u3HxbbTfjzru211FZrvnkbB31gvUNBtZXlvmyvhx27txJK770JRe5sx+dokodn+rEBz4uua7j2Hw69peRnu+4ez3mxJ+buOS6xNrjwyKXoVi3H3Q+rkc3+eR0kcPa0mH3dtD5jkc3GV3Urp9/9910+PBhVxkc/r2dnT1Y1/Jptf750OsOceOmjfThdWtoyZLTywwgAADzm2oA8cQTLpLDrnV4DsVyOLc8WUZqeZbXjvWx1z8O6+N3k2N57PiuY2t5nc2bP13kiO2B3pPQXlmx5YXW0dteNg9dVMfG8s7ftq3QAOJAXcun1do8lgFE1e8AgAmgutQqpY4tTyvmcenHzcWzhzydi3mpfMjrE6f82PK0Yh6XfjyQrIv44ulczEvlQ17vpF2rpTVXzOPSjwcSd3LI07mYl8qHPF/F4BFKU40HDCAAmBSqA5v7le+UOq4Peskb/LKcVCx1ifPFs8U8iavFR2JL+ta1H3fq87+LnKxTrfYklikUW5N+gsGP23Vxu0639GNrytkyjqUucSNx58Y8ias3IRJbyvlBKgZf1miq8TC9+sIr6xAAsKiRg1wlXedY6las5V6yYr9uxc3Es4ZiqQ8T63oltnQsdSvWci9ZsV+34sYKnXplGjbW9XDWirVCbfzYr1txY3EHh2KpDxNLvRjWFYaUxsP0nt0P1CEAYFFTHeSklNivW7GWnkfimNxLn5cvnj1Urxbt1UOx1CWOipvq2K9bsZaeR+KY3Euf10j+6VTXZQrldCz19OTPEVpCaGl6Holjym0XFHdyqF69AV49FEtd4piKYQ0QUhoP03UJAFjsVAc2fU1eJAc9HfuS+UN1Lc75ci/BXL+4qY5z6lqWr680+9JXnhdIFznp06pMqbqeLD9286F7w0JaiSN18UKTv8bQlvEkW64Vy5niDtVxTl3L8nN/kIph3aJIaTzga5wKrK8sWF9ZQuvLofoWxpe/7CJ3BqyeW+cDXOh5domtNqm8+Pq5eisvcftbGN4D7NVnKN+z8pavH5K38pav486mhnYv1QWpvPj5XeSwtvTk9ZJsamj3YruSkxd/AXcRnf+v/lWhb2E8XdfyabVuWzhf4+QD5lPX/1VdK8O5t74+eoD+dOH13ZRY31N7C+/fqsT+FV7fTYn1PXV24f07kNi/wuu7KbG+pz5VeP8+k9i/wuu7KbK+HKoBxFe+4iI5BMcO2zFfe4PO19vWOPaax/3UsVwf75vM5/udTU3tUsjX3qDz+W3NLR1kb8v0kmxqapdCvvYGnc9va2zmYLta6Afp/DvvLDSA+NO6lk+r9S/xNU4AQEGqy6xcSiwSL8fX3vwSb56ORX6blF9btpfja2/eSd8A0JPfRibbz29p+9qbd+I3Ucciv03SLwWPUJpqPGAAAcCkUB3Y3K9834188Xx/UPG6RDGP1fW1nes1kX/rWm5X+/487iInPeV6TSb/CQbrKQfLCbUcfJI90XtjeTxpv6fzcr0myv1BKgZf1miq8eB+HQAAE4E+uPWIcyLxfFl5PZ+We0m2aS5ZpJUTWW20J3GoTVC6uXi+rLyeT8u9JNsMJPOU6slqoz09WW3sKaelldfzaenJyg8s6XgrJ7LaaE/iUJvKL4V1hSGl8YABBACTQnVg41JiS5IPtdd5LfcSzTcXL87yWZ3VeZ6V15J8rI3715b2tPRidJ1jXfflXqL5gRQ7vepJe1ZeT5IPt2m6BL+9zmul8gOJO93yWZ03xfOsvJbko21KYQ0QUhoPGEAAMClMu1/3jtwBrqh4+Swda/nt4uJbBTqWuo513c/HJF2g636ukmxyKclm61jLb5cU3y7QsdR1rOt+PiaZdN3PdZ1S0lsssZbfLil+U3UsdR3rup+PSX5QdF3HxbBuUaQ0HkruJQBg3uPOUNlidBxDtwnFTM6yusSWGqr7viY2TycnlRwxOo6h24RiJmdZPcQWHKr7viY2TzuWKEeMjmPoNqGYyVlWD7EFh+q+r4nN47cdGusKQ0rjAQMIACaF6tIql8PEXFqxbhOLy4sX78fVKr04W7K4QWMurVi3icUjkb4xILFMOs6b/CU1jWXyY90mFo9E/Cb4cfXGeHGuimENEFIaDxhAADAp9BzgdL1JzOUgcb54NssX6bwVp/I65tKPO2J7kJjLQeJGSp1Odd6KLS8Uy6Tj9hTKpmIuB4kbiTvX8kU6b8WpvI657ItLYQ0QUhoPGEAAMClUBzb3K98j8dSBr7Fk2Vz6cZ54lpBXLU5Je1ZszcPPFvix5VWan13kZJ1KxfMn7VmxNQ8/X+DHlteOtHqzg016y/w4W9yxIa/qdCXtWbE1T5MfpGJYzzikNB7crwUAYCKQAxsf28xSS+es9lriSWnJvfR5/eJmukxJt7ek2/jtY/O5f3appXNWey3xpLTkXvo8U3JqzT3F6vbWpNv47cPz5bTUOau9ViwniuV6xJ2py5R0e0u6jd8+NF8xrCsMKY0HDCAAmBSqA5tfasXahHJcaonnl4OJZw95fmlJt9Hycz1tuKpLLT+n24RyXGqJ55cDyzqtiueXlnQbPfm5bpvB5grnuNTyc1IOLO7kkOeXlnQbLT+n2xTDGiCkNB4wgABgUpCvnfFl1k6pZXmWeFm69HMi3UaXzcW3EFJlE/GuhspON0ipZXmWeLN06edEuo0uBxLfRkiVTSRf1LTKXkfL8izFtow9kW6jy4HEb3KqbCL9g+OXxbBuUaQ0HkruJQBg3uPOUEEJIV8Qz8oxIV+w86mljbIUVWjDlxDyBfGsHBPyhWA+tcBRlqLemi8h5AviWTkm5AvBfGqBoyxFRbGuMKQ0HqZXX3hlHQIAFjXVpdVUKeK6SHtNy8HFi7B8lp+Tek5pqSfH1Vgpas/W6/ttc8qhFLu47+eknlNaUzeXOzfXRdprWg4l7mjLZ/k5qeeUlnSuGNYAIaXxML1n9wN1CABY1OgDXY8k55cirlttfN+Se+nz4uJZrDinrj2rjOV0mz5x2ipF7dn72/i+JffS5yWlT63+aTZV155V6jjWpndKteS61cb3LcVyQXHHWnFOXXtWGct1ylJYA4SUxsPUged2t44ceYXuufc+unHzbbXdjDvv2l5HZbnmk7N11AvWNxhYX1nmy/py2LlzJ604cMBFfNeSxQe4U1SdxXX2dSxtJLY8PxZJ+5DXjvmO7XEnPuxxyXWJLU/u8ur5/DiWl2WEltfZ1NQuSSxtJLY8PxZJ+5AncXQPcvaKfT+O5WUZ9vJkU1O7JLG0kdjy/Fgk7UOexNHNT+9S2/fjWF6WEVje+Zs30+HDh11lcPj3dnb2sbqWT6u1feh1h7hx00b68Lo1tGTJ6WUGEACA+U01gDh40EVyCA4dtnUs0ofrVD4Uh9vGjsk5x2wdi1J5Lc5xG4k7m6p3NRSL9G6l8qE41rZnS/0901tv5f1YlMprcY7btGPZVN403sRYLNK7lcqH4ljbns30d6u76Xbej0WpvBbnuE0dn//P/3mhAcQX61o+rdZvjGUAwf0PAJgE+LIqH2mrMhb7HpdWW/EtuRczHk68qFick/fjPo/DVOx77dnDviX3YsZDS1/wt2LL8/N+LFPbC7UKz9EurbbiW9L5VNtG4g6PxTl5P/a9YvCopKnGAwYQAEwK1XcQWe7gVikUNxUv24+59OO0+BtwOpZ6kzhHvLt+XHWBSHYnFDcVb6Iftze7N86S/iIjx/oLjrlxjvQXMiXuTrFWg8jaUi79OEv8hupY6k3iHPEPhR9XPyhOxfAvdeRoPJTcSwDAvMedrTpicmImFDODtBue2FqlbsWxXIVUrGQoZkIxM0i7IsRWLHUrjuW6UX8mHDOhmBmkXRFiK5a6FcdyRbGuMKQ0HjCAAGBSqC6xSmmJc7qdbmvl/LqOU3IvfV5bnArVU7lQWysndYk7Ytv3RLIIP/brEvt1HafkXvq8jvwL+rqeyvn1WE7qvVO/05303Dr26xL7dT8XU7Qtd2ConsqF2lo5qUvc8UphDRBSGg8YQAAwKXQObn6s6+LpOLcusVUvJ1m1rofyEvt1v62fr6o61nXxdJxbl9iqF5VMuh7K68nPhfP5LfvzsbrEVr2o5A3S9VBeYr/ut9X5YlgDhJTGA77GqcD6yoL1lSW0vhyqb2F885su4gMbf26Q0n/GnWP2dBsty9N+aHmW146tO7h8CAx5+mF38fWD8iEvZz5WZ1OlPPld5JCt09Jb7Xuj7SXZVCnRRSqu/fNvuKHQtzAeqmv5tFr/ceF8jZMPmE9df21dK8O5t94RPUB/uvD6bkqs76m9hfdvVWL/Cq/vpsT6njq78P4dSOxf4fXdlFjfU58qvH+fSexf4fXdFFlfDr0DiNzDveU3aasVbivHYS05DgeOzT0SXx/Xm7T1/c7mhTc57jdpqxVr29lSLb234+0l2bzYJsf8Jm21Ym07m6mld3W8XVRwAPFgXcun1boPX+MEABSkc5lVx9oTiceyfO2lfN8L+2zn+tUiAl6Orz2d69S5quviicRjWb72Ur7vxfxqyvVlsjyeUr41dX2rhczp5yxfeynf92J+1Xm5ftXRAS/H157OVWUpeFTSVOMBAwgAJoWeAx3XfU8Uyonv57Sv85Y/mHhxId/Kie/nQ76Vc//a0p4olBPfz2lf5y1/YMVOtVbOn1J+fy40B0+hnPh+Tvs6b/kDizs95Fs58f18yNe5YlgDhJTGAwYQAEwK1YHN/cr3SB3wehTLsXh5IvG0dN5vZ+Xa4rTlszqzK8VyOer8bYZalT+/u8gpdlq1plguZ+r+fYa2LMeeYjmecrfcamflOuJOtHxWp5OVYrkcWT9IxZD7I000HtyvAABgIqgOdlyKuB6SbufLvWS3FbmXPs+WLNbK+epsQi2rDctvp9XXTlviWdLtfLmX7LYi99LnBZV1Gq3lT1YbVmzqbddbC0+6nS9/str4ym1XSTrfyvnqvFG1rDYsv52W364Y1hWGlMYDBhAATAr+AY+PcabcS1TWPJbcS+N5utKzW3lLeh5LjeexZ7HbalnzWHIvjefpkZ6svKXU1GweqzUrNVnzWNKTlU9Kd7KVt6TnsZQzTzGsAUJK4wEDCAAmBfkTu0m5g18R8TrLqO+2woAyd3cQWbs7iOzdHVD9txYGU5nJWvIgsvZ0YFk/FIPI/KHwVAzrFkVK46HkXgIAAACgKNYVhpTGw/TqC6+sQwDAosa/xFpMvOyTI3Nz5qPszR+TFsZkbfnYZL5pQ6oY1gAhpfEwvWf3A3UIAFjUWAc5U9y2idyLKavtYDIX72S1jclaxkCyFx+WezFltR1YoclqG1OZyVpyTKHJajuwzDfByWobk7UMX8WwBggpjQfcwgBgUqjuzboDW1K57US8bEu57Xpl3XK22rGstpbktrSV01ogXeTU5GkBq62l3KcXbNdXbjuRteWs3HZ9st5gqx3LamupyQ9SMaxnHFIaDyX3EgAw73FnqaA0qbwmpw2Tyue0SK9N50PtrDasCish0qTympw2TCpfkdMotUKdD7Wz2rBsV6RJ5TU5bZhUviKnUWqFOh9qZ7VhFcW6wpDSeMAAAoBJwbrM6v51JZ5I5/y8nxO5l2Te8tOSRcdyOXndxvdN6UWJJ9I5P+/nRO4lmbf8LMUu/Osplecp5PdPOUux8n5OlJO3/CzJGxDL5eR1G9+vcqWwBggpjQcMIACYFOTya881c8vTOcvnZYV8keXpXL/PV35Dvp8TT+d8T8S7YXkxv7P5LMvTOcvnTQr5IsvTOct3J6uw7+fE0znfE1k3HGSy/X6n19M5yw9tjbUH2tM5y6/eyJDv58TTOd8T8ZtteSG/GNYtipTGQ8m9BAAsCNzZqSPB8phcj8n18hlmLexpX+ohT/umaXlMrsfkeo0YZkXsaV/qIa/r9zu2x+R6TK7XiGFWxJ72pR7ytF8E6wpDSuMBAwgAJoW+y6y+x/VBPKmLp+shr1fcZBCvWrRRt7xQG13vEzfx64N4UhdP10Nen6wL9zmeTH6dp9w24clqPYgndfF0PeT1iTtyEK96A4y65YXa6HrllcIaIKQ0HqYOPLe7deTIK3TPvffRjZtvq+1m3HnX9joqyzWfnK2jXrC+wcD6yjJf1pfDzp07acXf/q2L+MAmnxu4ZLEnvi4lZjE5eT9nte+N+YKrHPb0BVjxrbyu+3GuJ7Ff72waw6W1+b7HYnLyfs5q78fmVjPiW3ld9+NcT+Leumwaw6W1yb7HYnLyfs5q78fmJjPiW3ld9+NcT2Kvfv7VV9Phw4ddZXD493Z29jfqWj6t1heHXneIGzdtpA+vW0NLlpxeZgABAJjfVAOI7363ruUekiVmMVYby8uJu17smByLRzVfRf9mxmMWY7WxvJxYe8mtDsWjms/ezFjMYqw2lpcTay+5yaF4RPOd//M/X2gA8e/qWj6t1n8eywCC+x8AMDHI4bY65NZlKmZCMTNIu+GJrVXqVhzLVUjFSoZiJhQzg7QrQmzFUrfiWK4b9WfCMROKmUHaFSG2YqlbcSxXFBmZNNF4wAACgEmh5x6trqdiLmNtrHZW3Fw8+yhiqVtxR2znxu1FhNtY7ax4IOmnA0rGUrfi9pTTUmIuY22sdlY8kLiTRxFL3YxLYQ0QUhoPGEAAMCn0fOcwJ06JlyllbhwXfwMuFsu35EJxSrx7flztso55c1k5cUq8eVLmxknpLzBaMZexOCX9xUuJZWrHfjYWp6S3PDdOit/MWMxlLE5JfmB0XP1gqLgYfE+kqcZDyb0EAMxn5JNRnyTHpY51KbGWeFzqWLcZXrzIkCer1l4qH/OC4mZS6liXEmuJx6WOdZsisj6jiyeT9lJ5mSzPnnRLfy49t+RF4smkvaLijg958gZpL5WPeVW9FNYVhpTGAwYQAEwU9YGuwipDOSbmaXLnbRNbgia8hF7Paud7XGoxUpqmLkM5JuZpcuftEFuIJrYQ7VntfI9LLaZd9ju9ZSjHxDxN7rwdYgvRxBaiPaud73GpxUhZDGuAkNJ4wAACgEmh8+lIYu2J/FxqPo5Ffr2ceNEhT5chL5Sz2lTilC61/JxuE/JEfr2orM/t4ulSx9qTKTZfdxp0CSFP5NeLit+AkKfLkBfKmW1KYQ0QUhoPGEAAMClU92jdga2v1LK8kHiZVt0q88W3kKWU2MqFyph496xS56tN9kstywuJN8uqW2Uj6acH/KcDdC5UxiRPMPhlNx/LhryQ/C2KbXkj8RsqpcRWLlTGJD84fqnzxbCecUhpPJTcSwDAvMedrYISQr4gnpVjQr5g51NLG2UpqtCGLyHkC+JZOSbkC8F8aoGjLEW9NV9CyBfEs3JMyBeC+dQCR1mKimJdYUhpPEyvvvDKOgQALGo6l1cl9ksR17XY07LyuvTlXnrKcuJFDlua4rRVitqzd8WelpXXpS/30lMWldwUGKbsn1Itua7lT1Zel75S+aHEHT9s6asY1gAhpfEw1F+iPPMzf15HAIBxcehTP1xH+VR/ibJzUJMLj1yyZ8lvwwwyn4ix5+PDnVx05dI/DPqeVmi+lGLzVQyyq8wg84mY0HzRrWZiPRDb25hi8w22q8wg84mY0HzRTWZiux/b1Zgi853/sY8V+kuUd9a1fFqtr8z/P2XNA4i9v/hW+sHvP7V2AACj5C237h98ANG5L6sPu6FDdRP5y2Dyl6ePwzqOHJuz5S+DSS2vQm/iye8iB2+Z7I2O/T0cRP4ymNTyejcPXdSv8z/60UIDiDvqWj6t1t6F8aesMXgAYCHRd9g1SkZ7VjvLE3Q8PMOsQc/rx5ZXoZNi+iWjPaud5Qk6LsIwK9Hz+rHl9WbaTn/JaM9qZ3mCjoswzEr0vH5seUUxRidJjYehBxAAgAWCf4+2T7qNxFzq2PKGFy8q5kkc8vy874XiUD4obubH7VnjXhFZd/+1J3HI07HlheJQ3p5CS9Cx5RURd3jMkzjk+XnfC8WmVwprgJDSeJje80dP0x89+TX6b//9r2oLALAo4VsYne8TlhYvPxZzmSf+Fpzli3RevjWn45D0N+0krrrEizubXlq8mbG4vRuZSn2xUec51l+IjEl/AVNimbqxtCit0NZKzGW2+E21fJHOcyx1iUOSHxgdyw+PjovB90qaajxMP/mVZ+grX32OvvOdQ7UFAFi8uDNVthgdx9BtQjGTs6wusaWG6r6vic3TyUklR4yOY+g2oZjJWVYPsQWH6r6vic3TjiXKEaPjGLpNKGZyltVDbMGhuu9rYvP4bYfGusKQ0ngoOUwCg3LwDnr/zB309bq6KJmEfZzvyCXWPnFO8hL7dY6lrmO/XUzupc9Li2fTsV+XWEva+dI5v21sPvevLR37dY6lrmO/XUzupc/Lkn9TwK9LrBWadM5vG55Pt5TYr8vkx367mHLb9Yk7V8d+XWItaedL5/y2EhfDGiCkNB4wgCgNnyjPOI3e0tEn6YviD3MC9Zb7/q3768RJZO6Taj+drn2kToB5iRzgKnFdpD2J/bpuq2Nd9/M5vi1uHqtrVYs2YkuS92Xm9Kzak9iv67Y61nU/n+MH5Z9KY6dWmfzYUmjqz1lz+a38nNR1rOt+PscPijs1Vteq3gAjtiR5XzpXDGuAkNJ4wABiFPzkr9MfHD5K32T9NtFHeeCw9Fr6vblr6W11k2Y8Qr/8479NP/PVepmHf5/Oee7kDiC+vvVCesvPEv2W7KfTb9HvtgdLYH5S3Zt1B7ZKHIvE8xXLsXiZIu2F2jQT30726+JJrNtoT0t208qJOl3Bkk23PF+xHKu7eb1eqE1j+U8G+E8N6LrvaeU83dDfSk+6pVYsx5It01vnb6lu01j8Bvt18STWbbSnJT8MVk7U+YFxKob1jENK42H6Da9/Hb3+9a+l0191Wm2Bosx8gP7hHz9LX++5AuEGBOqT+y//QWW2qT7VX0j3HKzrHd5FZy+tQ7qU/sUdl9axt6zfbK/nnmu5rq5+dNqoZVt+vZ3t+dv65bl28y776Qs7iG786l303tph3ntHXe9Zbr0NGivfs15jHlAId8aqpBHPlybm+f5oydmKlOerB8vUjbU0Mc/3R07OhqQ8X136nd6WWpqY5/sjJ2dDUp6vkWBdYUhpPEz/w7//Pvr7636alp39I7UFSvL1rTfTv//JFerKw366Z+ZniH67+8n9X7ynTvFJtPpUv5t+rjNYYC6l/232s/RRPuH23CYILOuPf4n2X8F1PqHz1YtnaUOd/+ZXf5Z+fz0PZEK+nt/pt/8J/fvbvFsvBx+k3/9jPaDR8HJ/ic6pt+kPbv1T+mjPNkfyPdsNiqMvtQbF7UTisWJejm95rK6v7ZiX41tezG8kvRjxWDEvx7c8lvZ7ppiX41seTyE/fwotIebl+JbHk/Z7Oi/m5fiWF/O1imENEFIaDyWvswDBnQjfU3/Cfs+On6U/0Lcu+ORLv04/P1PXBZ6nOqHbJ8/33lGf0K/43fYndz7phpb1k8o7+Bw9Q/Xgg+VO3l+progEfJ5Hz3/2CvqJOuyhZ1Ck4OWq+d926c/ST2xXtzZieb1eUJ7q0qo7sFVSl1p7rqenxMsRxXxdLyN9pTjm63quzO6wvBzpzYv5ul5MoQv/vq/ruepO/U5vy5RiW6Z9XS8m/cbHfF3Plf6hKYZ1iyKl8VByL4HgToSdZyByn3tw8/xW36d1g5m73HJ/n/6hPimn0NtTqR6khPwUS99B5/zxb9MX+m6zgHlNzyckrou0J7HUdZtY3pd7SbaJi2e3fJGswvd0zspbMvN6Vu1JLHXdJpb35V6SbZLq+/ztSSbf0zme/Lw19eetuXpb9LeJ5X3ltEmKO9nyRfJG+J7OWXlLOl8M6wpDSuMBA4hxs/Ry+hn6Jfo3fc8VuE/jV++m33LZvm9Y8K0NPbCoPsWvoLdFltWhOtkbbUJ+FpfSz99KdOOP9z6r8MVrXd1b7tcf+W36yuwHugOTVB6MGHWQ60gI1cXTOSbW1ifk26Ra67ysNTSPzmsJfZ42ehKOUF08nWNibX1CfpDUDDovKw7No/NaQq+na123Taguns4xsbY+IT9IagadlxWH5tF5LcHyimANEFIaDxhAjJ1l9HPbfp2e+dn61oGTfojyvXf8Pp1z/Tm9gwgeKHztZzrt38LfyNjGVzbiy2pzKf2Lr/a2eUv1MGfIz4MHO9XzCzKv00eJBwK9y33P9e+i3+o88Mmk8mBkdD4p6diX386Xe+nJ+fWY3Eufl5asQtd1Xku3Tc1nte2Ibd8T6Vx3cV25l56cX4/JvfR5WfI/q+vYl0x+LHWJ/Xzv1O90J39OX37Or8eU265P8kbous5r6bap+ay2Vb0U1gAhpfEwtfH/+PnWsWPH6OlnDtJ/vO93ajsP/t84v3n9sroGABg1Q/1vnGeeWdfk4MblqOJYjunG+pDnx1KOI5Z6RXyTy8SxHKNjc4uZkDeqWOrpTS4Rx3KMjs3NZULeqOK6fv4HPlDof+P8v+paPq3WC+P53zj/n7t+kw6//Dd09OjROg0AWLzIIbeJmKYxo+PxEtqKWNypS6WJmKYxo+OxE9qQWNyuS9RETNOY0fHYCW1ILNb1IuiRSa7Gw/RTX/1P9M+u/Sf0o+eeU1sAgEVJ5/KqFXPpxzFvdOLVxTyJq80KxKF8tng2P24vqjeOeSOVdSFfexLLZMWhfN4UWqIfx7yRit+UmCdx9eYF4lA+R8WwBggpjQc8AwHApND5PqKUOtaen2siXo+U+eJvwOnS8rhMtbPEu2H5IslXu8vizZdSx9rzc03EmytlI8kXG/UXHH2Py1Q7S6kvYkq+N7Ky4vm5JvK3Plv8RurS8rhMtbPEb7bliyRf/VA4FcP6mmZK46HkXgIA5jPWpyT3zy4tT5chuZdomSdurstQzm/nl1o6pxXLVeKUVVqeLkNyL9EyW/KZ3vpsr3M6tkotndNTLNef1a1COS5D8tv5Zba4U3UZyvnt/FJL57T8XDGsKwwpjYepA8/tbh058grdc+99dOPm22o7D36IEgAwXgZ+iPIHfsBFcmCzyljOL32PsfxY2Y7lcBcrc9qkyuw26U3OK32PsfxYKXF0q6XMaZMq89rkbHJO6XuM5cdKiaObLGVOm1SZ2eb8yy8v9BDl9XUtn1brW2N5iHKoAQQAYGFQDSDe9Ka6Zh1+R1H6HtOfjx2Hhy0lZiw/VBqbOZrS9xgrn9ziYUqJGcu3S2szR1H6HmPlE5s7XCkxY/lGef6aNYUGEJ+qa/m0Wn8+nm9h1B4AYLEj92Y7cofeYuLl+3Vfup2fcyeCQL1JmSve/VDZI71Lw4o306/70u38XCX/yQD/iYGcMlfy9IJVdidpXUL+FnLdl27n5yrxG2nVm5S50j84flkM6xmHlMZDyb0EAMxnOvdrdexLcrHSknuJ1vPFs1o+S3KhUos9kW5jlX3ilO+JJBcrLbmXaL2RYk8DSC5UaulJt7HK3sl221NqSVxa8nOxtklxB1s+S3KhUos9kW5jlVrFkEsdTTQeMIAAYKLgA5sc3KwylhNy2giWl09syYLfhkvL80stRkrT1GUsJ+S0ESyvEbGFC34bLi3PL7WYdtnv9JaxnJDTRrC8RsQWLvhtuLQ8v9RipCyGNUBIaTxgAAHApNC5Js+ljrnUsjxLvEyr9D2rXVd8xbeJx6VWLGeJd8+PdVltoh9zqWV5lnizrNL3rHY9si7YxzwutWI5S/rmhMTdUmo65lLL8iz5W6a3UHtWux7xG9jE41IrlrPEPwR+rMtiWLcoUhoPJfcSADCf6VxeDcWWJzGXOuZSx5K35F76vHzx7Fbse9Vq6tj3/bwV94hTVmx5ErcXl85bci99XiPpi/3WhX/xZLJ8P2/F3SnVwspzqWOZ/LylVD4p7mQr9r3qzahj3/fzVtzxSmFdYUhpPGAAAcBEwQc2Obj5sZCKm7RtRpO5mmwFl6FY6MR+Ax0LqbhJ28Y0mbHJhnAZioV27Gd1LKTiJm0b02TGJhvCZSgWdFwEa4CQ0njAAAKASaH6ZCTlMDGXflxevPicWOqDxn3i9LAxl348EunP5bFY6oPGvdMwS5KYSz8eifhNyImlPmjsqxjWACGl8YABBACTQnXjnuUObpVyYl+8HCuO5TiWusR54tvJOpa6jkO5mHgXQ3GwK0KxL94MK47l2pveG2fLf0pAPymQysWkn2Lw43DGin3FtiaU41jqEmeL31wdS13HoVxM/IMQiothPeOQ0ngouZcAgPmM9SmpI53nOLcusVWPyb30eW1xKrdeLSaznpOLipvqOLcusVWPyb30eR35n9tjdZly6joO5cJTagmhusRWPaZoW+7A3HrV2Zn1nFxVL4V1hSGl8YABBAATRX2gq8T4dWbYOpOqx2m6NKuuPV2XOFTvM/w6M2ydSdWTNF2gVdeerkts13tr/XVm2DqTqidpukCrrj1dlzhUL4Y1QEhpPGAAAcCk0Hfd3a+HPF+8LL8e8sTX9X7xVd+UJ1eH/bp4uh6Svsosde317b5fD3m+eJP8esgTX9dNWRfvfc+64K89XQ/Jv/kgU7fuZ3U95Pmyti7kia/rpvhNTHnyZvt18XQ9JP1DI3XtcVwM6xZFSuOh5F4CAOYz+vJqpZDn++JpX3viWx7L9/PFs1ue73dWpbyQn/J6xGnL8/3uomxPfMtj+X4jWRfyZbI8nlK+niyvO1mZ2FK0rz3xLc/yG4k72fJ8v/OGKC/kJ71SWFcYUhoP06svvLIOAQCLGn1w64h9Kye+n9O+zlm+74ncS5/n/hleyrdy4vs5y9deUNJce6zuYsK+zlm+74ncS59XKXQqjflWTk8pPz2FWorv57Svc5bve6JgjjuvqW/lxPdzlq+9Tq4U1gAhpfEwvWf3A3UIAJgM+ODmSxPLMTm5ELFcmNhSc3J+XvtWPtkglmNyciFiuSixBefk/Lz2+/PxbDzH5ORCxHJRYgvOyfl57Vv5IlgDhJTGw/R3jxyjI07Hj4/vvgkA4CQg92l7bsRrpfIiXhYrlrOUyrvjby0rx5K8r1hOJLtn5Vid3Wf5uyVK5UWyybGcpVS+kvWEgJbkfcVyIpmsHCu/hZXTim2t5Cyl8pXkTbVyLP3Ga8VyIvkhsHIsyRfDf74hR+Nhet+B79D+r79Eh18+UlsAgEWJdZm1R9zGknsxZbW15F4atXf/alk5S51VeGrSNkv2Iu22LKutJffSqH0lmaycpdDUpG16spbGCk1WW0tN21eSjrVyljpvhKcmbUXFsK4wpDQepn905Q/Ru875QXrDmd9XWwCAxQ0f3JqoCcPO38uwS/Lnj6kHq0FMTRh2/j6GXZg/f0xdrGxMTRh2/j6GXZg/f0zFsQYIKY2HktdZAADzGbm02ndNvaR4PaOTdcW4lDrdw7J2rZTsXSso/4ZASeXfohhG1l4VlfUDUEryQ1QM6xZFSuNh6sBzu1tHjrxC99x7H924+bbaBgAsJs4444w6AgCMi8OHD9fRYAzzezvsukPcuGkjfXjdGlqy5HQMIAAAAACQhx5AlLzOAgAAAIAJAQMIAAAAADQGAwgAAAAANAYDCAAAAAA0BgMIAAAAADQGAwgAAAAANAYDCAAAAAA0BgMIAAAAADQGAwgAAAAANAYDCAAAAAA0Znr1hVfWIQAAAABAHtN7dj9QhwAAAAAAeeAWBgAAAAAagwEEAAAAABqDAQQAAAAAGoMBBAAAAAAagwEEAAAAABqDAQQAAAAAGoMBBAAAAAAagwEEAAAAABozdeC53a0jR16he+69j27cfFttAwAWEzt37qyjxc/HP/5xOnz4cF1bnNx228I5Vm/cuLGOFieT9l7cuGkjfXjdGlqy5HQMIACYBHgAMTv78bq2uGm1aCIGEDfffHNdGx3D9iNv5yQMICbpvdADCNzCAAAAEOQLX/jCQALlsfo5R6MCAwgAAABRLrnkkkYCo8Pq75hGCQYQAAAAorRarUYCo8Pq75hGCQYQAAAAolgnpje84Q2mzwKjw+rvk/VeYAABAAAgyokTJ3r0xje+sfK59HOsBcvBrTQzs5UO1tX5iN/XJ/O9wAACAAAGxTrhjPsktH8LXTA1RVO1Ltiyv050eXi9y12whdqZh2l9p/16V0ujP9G+6U1vqt02XNd51kmB+/3MM+nMjmZo69hHAs37tim6n0/2ezG9+sIr6xAAAMCCY98zdO5DcsJ4iM697mOkxxA8eLiJrqLVnfoaorr9vtufojXr06e5Y8eOdfStb32rTzrPOmmcdwvtPXSIDrH2rqUdqzbQXJ0aB4P0bVN0P5/s92J6z+4H6hAAAEAx/CsRut7zaVl9Uq78hp+cL9tG2y6rY1pO58hIwbF/ywV00zn76In/85zaeZh23n0VfbBuv+yKD9Hqp56rr0yEkU+zuZoXLF1OK+uwItrntb/qBnqytpu/F4P1bVOs/o5plEz2LQz+AZnn97sAAPOcJ2+gVZ0Tk3cSMpmjDauep436k/L6Qseh/bvoPvoQXbGsPXj4GP0mPbHBVUIsewedu+cZ2ldXQ+zZs6eR5gVzD9L2895OZ7crgT5n/wZaeb/4t9B5VfsCZPZtU6z+jmmUDDeAmNvQ/aVhbRjgYhFO4gCAhYy+bJ5zEjq4j56m7bRODziefJ4OcG7p1TR3aI6uXlq1bMjDtH65Gz785gZa5j737rrPnUCuW96+H7/8OncyuY6WX7CT/rpu3YSf/umfbqSThh7M3fZ22jt3NVVdGepz9t37d81MNXcvQ70Xo8Pq75hGycADiINbZ+jMdUT3q1+c++nBsd5vAgCABYk/6Di0haxzWD788N5NdM6+J6h9wWEZbXhCXcredzutXn077Xvig/S6qn3N/ufoqdXn0PK6GkI/1d/5wKik86yThvQrD+JkUCYU7/MEmX3bFN3PJ/u9GHgA8cgOolv29r4BM1tc3b+ioOrVoEN2tPIO0tb1PBJsjxpn+GZTdd9JOqN+AKZaxgbaMNP2N8y5+ToxN/CZow2dZdRtrOVqguvdSls3dL3+fQAAgADqJHbQHTSrWxt8b94d8+60jl3VcajhMxDVtzD04CHGZfTBq+6mnfWzfft33Ud7zn2HG27E0ffUX3rppdptw3WdZ510+OrB/UTr5Fge6vPK30GP1P3deY+Yxu/FYH3bFN3PJ/u9GHgAsePJlbS8yaUd92asv2Fl54rF/Sv5F2spXb3NjRTrkeHc1Qd67kftveVpWicjhCefprdvc/79s7R93XoiiW/zT+I8uKgujXRGmltmeu9z9Sy3IpJ3P3TPX85+e3DUvw8AAGDgTmLb+FhSf+BY//zK+tbGDG1xn5CfXld/EBnyw0h1onLTdcvl64P2VzmFy7Y9RLSm3W75defSQ90nMIP4J6XvfOc7lc+ln2PNC2a2tI/l1SAg1OfOv38l3bCq7XXfo8EYpG+b4vf1yXwvBn8GovNwSibVE7F8D6o9IqyuVrQzXbz7UUsvXUvnba9vi5y3li7lAcvZb3cDDhVzTnPwEdpB3j2t2HKZ6HrVsnL2AQAwOfAnXbnPLihv6dVz1YcN1pw7XnTaVvfX236lHr/ZffdlG57oO2n0PTi5bAM98QQ/G8FcRts6bbe5Whr/sjjr29/+tumzTgrGe9Hu/7o/Q33uBhri9b9HTZ+BaN63TbH6+2S9FwMPIPRlnzzcSK96ky6nB6sRYH1paUGxGPYBAACacfTo0UYCo8Pq75hGycADiGtuIbrB+yMdcxvqunXf7+BW2lDdTOKT8F665bynaZ8MQDpPIPP9qO59qmre2cubfcpfeimtJe9eV2q5ueuN7QMAACxSrK8HxgRGh9XfMY2SgQcQfGmofX+pvp/ktI7cSXdp4L6fO0m7EUfddhXtWLutc1lp42z76zUzW8/uuU+1ip832NL0JkH7uQp9r2vDnDvhR5ebyteE9gEAABYp+iuBTQTKY/VzjkbF1IHndreOHHmF7rn3Prpx8221DQBYTOzcuZNmZz9e1xY3rRbR4cOH69ri5LbbFs6xeuPGjXW0OJm09+LGTRvpw+vW0JIlp2MAAcAkgAEEAKAEegAx+LcwAAAAADCxYAABAAAAgMZgAAEAAACAxmAAAQAAAIDGTK++8Mo6BAAAAADIA9/CAGACwLcwFhf4Guf8AV/jxAACgEUNBhCLCz5p3XzzzXVtdAzbj7ydkzCAmKT3Al/jBAAAkMUXvvCFgQTKY/VzjkYFBhAAAACiXHLJJY0ERofV3zGNkiK3MO68a3sdleWaT87WUS9Y32BgfWWZL+vLAbcwFhfjvGzOn2Df+9731k4eX/ziF6v/gwG3MMoxX96L4s9A8AHz05+6tq6V4abP3BE9QGN9zcD6Fu/6csAAYnEx7pPWxRdfXDtd3vjGN9JLL71U13p57LHHMIAozHx5L/AMBAAAgGxOnDjRIz5hMVz6ORYYHX5fn8z3AgMIAAAoxcGtNFP9d/9tzWw9WCcCcPuZrZRoFWf/Frpgaoqmal2wZX+deJjWK39q6gJqp0J+mFar1dGb3vSm2m3DdZ1njYKDW2c6/ZrVtycF3bfrXa08up9P1nshYAABAABFmKMNq3bQ2r2H6NAh1v208vkDdW6E7HuGzn1IThgP0bnXfUwNCK6ihzonkydow7LaDvo2x44d6+hb3/pWn3SeVRoePKzasZb2Vv3K2ktrn39kuIHXCHh4/RpyHVv1677bn6I168sPIXQ/n4z3QoMBBAAAFGMlLV9ahzRDW7bMVFHvp+cZan94Pkhb199ATz55A62ST9TVFQzJZ3LZNtp2WR3TcjpndR0WpD3QyFdZ5ujOG4hu2XY1dbrWRVdvcfX6Cs7WDdyvG1xLR89VINWXlt8zf1sbqoXUuUbvxcO08+6r6IP1e7Hsig/R6qeeo8TFncZY/R3TKMEAAgAAijBDl89up3V8IuqchdosvXqu/uTsdP9KuuFOzruT4LZb6Lzzbqk+Wc9d3T09Dsz+XXQffYiu6FxRuJvW1JfUu7c2mJBvs2fPnkYqysF99PR5a+nSUPe4Adjzl3PfbnHvAF8Fep42Sl/vXUs71vMtopCv53e6f5a23zbkLSVh2Tvo3D3P0L66Wgqrv2MaJRhAAABAIWa21Ceiyx9sf6KVgYT+9LtuO9HT++yT1NKrae7QHA02lniY1i93w4ff3EDt8cNltK3zSVTf2gj5Yfgp/iYaHQdp60zdj/LsiBuAXdO+0NMebFA9iGOt4is8z9OBkM/z6PnPfjudV4fDvRejw+/rlEYJBhAAAFCamS1uIHE/zW5/kOZ48KCfjdh7S/ckVQx+eO8mOmdf6HmG0K2NvFse+qn+6gTsSedZRVm6nFY+uYMeqUYLS+nquUQf1ld0qr6uxFcmIv6o2P8cPbX6HNfDZdH9PPb3wgMDCAAAKAEPFPSti+rS+9vpbI7VJfiDj+ygJ9thG/kkzDS+7+6ovoVhDB4eXk+dZ/j41saec+kdnA/5EfQ9df/vDXBd51llmaFrbiG6QW45xKgGGzdQdYdIE/JjNH4vLqMPXnU37az7dv+u+2jPue+orwaVQ/fz+N+LXjCAAACAEiy9lNY+va77aZCvOvCDf0uvpo0r2w9Ksr/++ZU9l8k31s9NDPq1xOpE5abrlsvXB+vnGpafQ0+tqb3l19G5D21zpzhHyI/gn5S+853vVD6Xfo5VGn6GZO/aHZ0+5FsQtPZS9VClMENb9t5CT6+r27GqWx0hvyyXbXuIqO7b5dedSw91n24tht/X434vNBhAAABAEerL651L5N37551nI5zmtmyhubnuNwokVz1EOcB992Ubnug7aTzBlyKWbaAnlNc5l4X8CP5lcda3v/1t02eNgp4HUXV/qb6sqPqw2+6Q5C3fn1/Xq/ZNn4HQz5ekB2aDYPX3uN8LAQMIAAAAUY4ePdpIYHRY/R3TKJlefeGVdQgAAAD0Y309MCYwOqz+jmmUTO/Z/UAdAgAAAL1YXw3MESiP1c85GhX43zhrsD6srwnzaX054H/jXFzw/6y4UJiE/41zoYD/ztuB9TUH61u868sBAwgAQAlGMoAYBbED9CjA+sqC9ZUltL4cMIAAAJSg+AACADC/wQACAFACPYDA1zgBAAAA0BgMIAAAAADQGAwgAAAAANAYPAMBwASAZyAWF/ga5/wBX+PEAAKARQ0GEIsLPmndfPPNdW10DNuPvJ2TMICYpPcCX+MMgPWVBesrS2h9OWAAsbgY50nrC1/4Ql1rBv8FRAwgyjFf3ouRDCDwh4GagfVhfU2IrS8HDCAWF+M+aV1yySW1k8ejjz6KAURh5st7ga9xAgAAyEb+6+9cgdFh9XdMowQDCAAAAFGsE9Mb3vAG02eB0WH198l6LzCAAACAk8nBrTQzs5UO1tX5yIkTJ3r0xje+sfK59HOsecMC6Num+H19Mt8LDCAAAKAkfSetg7R1Zoa2juostn8LXTA1RVO1Ltiyv048TOuVPzV1AbVTIT+M/kT7pje9qXbbcF3nWWOH+/zMM+lMpQ1zdW6cTNh7gQEEAACUZOmltJZ20CMyYDj4iKutpUuX1vXS7HuGzn1IThgP0bnXfUydhK6ihzonkydow7LaDvo2x44d6+hb3/pWn3SedVI47xbae+gQHWLtvYWevu0kXHmYsPdievWFV9YhAACA4VlKl64l2iEjiAPPE6291Ln8QXlGfUo2rkpUn6QbXq24bBttu6yOaTmds7oOC9I+ueXrpOP6/MmVy6s+r/CvCul6z9UL1fd4L5JM79n9QB0CAAAowdLlK+nJ5w9U8dyD22nl8vapbOnVc+1PyKz7V9INdxa+zr5/F91HH6IrOp9i76Y19eXx7uV0JuTb7Nmzp5FOCk/eQKtkILDuabrlmpk6EWOONqx6njZ2rlyspR3rC125mID3ArcwAACgNDOX0+z2B93p6SDte3qWLpdzmf60u2470dP7ek9WS6+muUNzdPVAtzsepvXL3SnrNzdQ+5x1GW3rfBLVl9NDfhj+OwJNdFLouYWRORA4uI+epu20Tt6TVTfQk08+T9XQD+9FEgwgAACgODN0+ezTtG/uEdqx8nJXc/DgYdUOWrtXTnK30HlV2xLww3g30Tn7QvfQQ5fT8y6z66f625f6e6XzrJPO0uW0UgYCKfTAo9KW9vs1MJPzXmAAAQAAI2Dm8pV0w7obaGXn8oPjvO7DlAcf2UFPtsMug9x3r578N05YD6+n9Q/XMV9O33MuvYPzIT9C+xNyWy+99FLttuG6zrNOOnMP0vbz3k5n19UKNaDo9H010LiBzDtJeC+SYAABAACjgG9juKkzflh6NW1c2b1Pv/75lUWuQOzfdR/tcdN1y9v30Tv30pefQ0+tqb3l19G5D22j6vm+kB/BPyl95zvfqXwu/RzrpNDzDATR/XNXdx+idH2/7ZanO7cqun0/Q1v4Gxvr6vlYQ/zdiEl7LzCAAACAkeBOTt7l8Jkt3Uvlc1u20Byf5Pheu5zsBrjvvmzDE30njSf44++yDfSE8jrfDgj5EfzL4qxvf/vbps8aO1W/GbchVN/qB1g7fW/Ni/ciGwwgAAAARDl69GgjgdFh9XdMowQDCAAAAFGsrwfGBEaH1d8xjRIMIAAAAASxvhqYI1Aeq59zNCqmDjy3u3XkyCt0z7330Y2bb6vtZtx51/Y6Kss1n5yto16wvsHA+soyX9aXw86dO2l29uN1bXHTahEdPny4ri1ObrttsGP1yWDjxo11tDiZtPfixk0b6cPr1tCSJaeXGUAAAOY3GEAAAEqgBxC4hQEAAACAxmAAAQAAAIDGYAABAAAAgMZgAAEAAACAxmAAAQAAAIDGYAABAAAAgMZMr77wyjoEAAAAAMhjes/uB+oQAAAAACAP3MIAAAAAQGOG+kuUjz76aB0BAMbFJZdcUkf54C9RAgBKUOxPWfMA4t3vfnddAwCMmi9/+csYQCTAAAKA0YEBBAALFAwg0uA/0wKTyLj+0zIMIABYoGAAkWZSBhA333xzXQOTzq/8yq+clAEEHqIEAAAAQGMwgAAAAABAYzCAKM0L99LatffSC3W1Q8ifdNAvAACwIMEAohEv0L1rz6KzSp7wBj2BPnY9nXWW2xbR9Y/ViQaM6uRdYtsAAADMazCAaMILj9Iu+oibdtGjJ/Ej8wv3rqWzZom2v/givVhrO32e5sNpej5vGwBgRDy8nqampiqtf9iog0UJBhANeOHRXURXrKf3rdhLu/QIgj/Jy6ftizbT3toO+h1eoHuvc/7ezXSRa7P2XrdMPc9Z1xsn3heIN2PT47fSxbXDXHyrq/tXFFS9OrHLcisvc93VMq6n6/nKi/Ovf6y+ClPF3EAT2TYOUvsWXP+9dO/1Xa9/XwAYIQe30szMVjpYVysq7ya6aeZMOvPMfs3cdBPNcLxhrp6hzdwG5/GyrGUWYP+W9bRlvwvcCbx74n6Y1tcn86mp9a4mFPTXPEW372tRq9WibZf59boZWHRgAJFN++R4xSVvpYvf9xHau+vR+sT1GF3vBgcrttefuB/fRKuivuat9Inbnb9qEz3u2uz4xNd75nl807M065+l+SrI3hW09K11PQd3Er5u84rOVYHtK/bT15use++ztOx252//CH1u9joiie/0Tt7Rbevtj/59i+TdIGf/+9hvD5L69wWAk8Eb6R/MHaJDh5z23kLnnXcL7eXYae4fvJHovFmaffo22iqjBDdouO3p8+i8ulqe/bTrmXPoimXulL6T6IP1ifvh9WuIHmqfzPfd/hStqUcWpXza/xw9RefSO9x6zTpYtGAAkUt1++IKcuMH95H6ffSRvfVtjBcO0rPuJLxef+RmQn4Mb563XnIFrfqccfl/1TJ6Wx1m8daltII+R7P1J/jOFQFNbN2r6v1+2zI34FAx53xC25bat+j6VT/m7AsA84K30+VriXY80h5BzN15A61c64wYfGXizJnuoCOTh9fzVYHldN3d19HyqSlac/fdtMaV6x9+mHbefVVnMLHsig/R6qeec0ONcv765dfRHmqvb+qC9fT3e+pbXBuwWMEAIhO+fSGX+886a9adwrzbGOOCT6AyeMnmYrq1+sT+Pvq8vj1QmoG2rSlj2hcANE/eQKv0bYpVN9CTdSrG2VdvpJU33Elz1dWHW+iaS+tEYS7b1qLWQ1fRVXyFYN/tdNXt++zbB8veQefueYb21dUOA/uX0Ta3vtWrb6d9bn2tJ7bRf+ipbyBciFi8YACRBd++2EsfkdsRrO31bQzvpFkNNDgI+RZ768vw1TybaVt9Rqzm+cj7vE/YF9P6TUSbL+o9cT52fV2XZTk663zhXrqen3GoTr6P06ZVz9JBOck3WneKyLallp+7/ti+ADAq1O2Jzi2LOhVnhi6f3U7r3IBj5caraWntBll6Nc0dmqOrkw372f8c0TnLXbDvGcL9AzAOpldfeGUdgiDV7Qt1GZ3p3MZwJ7LtK9xJs/1Q33X7V9SX9kO+x1s/Qdd8hC/J84OMb6NbH99Ez86257mI7/Xf2n8Kf+sndrSfEag+gbc1S+5k65Z1u/I763QnZ7chdduLaNcVt9Mn+DbEAOtOEdw27o/o8lP5mtC+ADBPmbmGBxuzdPlMbZSm/sbD8uvupuuWT9HUmrvp7jWu7D5F2YWfT1h9DvE4o4dSPpgo8H9hALCAwP+FkaZV+v/C4OcS1hNtm1NXEHwvVRfE30a0PpRftYPW7o1fhej/vzAebi9v23Lasn4XXbGte+uAn4/Y+cH27Yz9Wy6g5c98mlquUsp3FbrgY0S/Kbcr/DoYOfi/MAAAYJLoea5iA/V+4bMh8rWL/bvomXOu6DlxX7btISK+IlFdpTiXHuKTfkEfTC64AgHAAgJXINIUvwIxD8H/xgk0uAIBAAAAgAUDBhAAAAAAaMzQtzAAAOMFtzDi4BYGmDRO1i2MoQYQAICFwRlnnFFHk8EkDCAA0GAAAQAAAIB5Cx6iBAAAAMBQTO878BLtP/iXdPjlI7UFAAAAABBn+gfe+Gp6o9OS00+tLQAAAACAONOvP/P76PVnvJpOfxUGEAAAAADIA89AAAAAAKAxGEAAAAAAoDEYQAAAAACgMRhAAAAAAKAxGEAAAAAAoDHTqy+8sg4BAAAAAPKY3rP7gToEAAAAAMgDtzAAAAAA0Bj8Z1oAADAPOfMzf15HIMShT/1wHdk8+uijdQRCXHLJJXWUB/43TgAAmOdgAJEmZwDx7ne/u64Bny9/+csYQAAAwGJDBhAvfvL7qhJ0Oeuu/1GVGEAMx7ADCDwDAQAAAIDGYAABAAAAgMZgAAEAAACAxmAAAQAAAMxXXriX1q69l16oq/MJDCAAAAB0eOHetXTWWWd1tPbe+tTln8geu77KX/9YXZ8U6v3uaOI6oAsGEAAAACp48HDRrivo8RdfpBcrbacVmy/qDiIEHkzMPkubHn+Rbr249iaAanA1S7S90z8v0nb6PE3qEAIDCAAAAI7HaNtmok23f4LeWjtEF9Otj28i2vVo98oDDx4u2kVXPL6DPtFtOAG8QI/ucv3z+K2uV7pcfGu73nvlZi1VY676qs2913evWHQvWDxG13fa1z6373j1MuYxGEAAAABwJ6+D9OyqK+gSf1Dw1qW0Yu9++npV2UXXTeTgwfHCo7Rr7wpaGtjvt35iR+eqxIvbV9DmbfVIYe9m2v8+8T9Cn7uTbwO9QPeurS5ldOa59WI3oLhoP10jy3j8Ctp13fx89kHAAAIAAEAee4mu2OROjvP8xDYyVi2jt9VhH/rqwezniJ492O6jVZtovVyyeNsyWsUlD0ZI+QwP4OhzNCvLuGgz7e0M3OYnGEAAAACorzTsokf9kUF1ZaI+cfIVik/cSo9fsYsumrSHB0P9w3Ru68jVg03tgUJT3GCj+/wJq/d2yXwDAwgAAACOi2n9JvKuLvBl9c1EV1yinovgy/W306ZnZ/sfrlzU1P1z0fU9D00+dn1dV7d/Xnh0F1+sCfPWS+gK2kxyl6OiGqB43jwHAwgAAAAVfB+/urogl9HbXzmgHX0PPLyVPrEj8A2NRUzVP5ue7d5mcJql99HFb/0EXbNic6ffrtu/InEFwvXf7Zvo2dnucq5/rP3AqvbOmqd//0GYevOb39x6bO5z+M+0AABgHoH/TCsM/jOtMgz9n2nt2f1AbQMAAAAA5IFbGAAAAABoDAYQAAAAAGjM1IHndreOHHkFz0AAAMA8Qp6BAGHwDMRwDPsMBAYQAAAwD8EAIk3OAALEGXoA8d3vHqHP/tv7MYAAAAAAQJCeb2G0Wq3aBgAAAACIw+MGFh6iBAAAAEBjMIAAAAAAQGOmp6am6hAAAAAAIA6PG1jVFQgMIgAAAADQBNzCAAAAAEA2fM0BVyAAAAAA0Ij2LYz6GQgMIAAAAACQw/T0dPsKhAQAAAAAACnkwkN1BWJ6GgMIAAAAAKThCw+nnHIKl9VliNoGAAAAAAhzyinT1bhh6gd/8Adbf/SlHbTlzu11qjkHDr5IX/1/n6af/d/X1E6Xb/zZf6OX/+Z/1LU2Z7zuNfQjb3lzXevl93Z9gd5/xU/XtcEpsZz5tC0M+iYM+iYM+jgM+iYM+ibMpPfNz33iQ3TaaafS1J9/48utY8eP0dGjrKN0/PgJp+NVeeJEW/w3r7tl+29gi5jf/f3P0759L9Av/bOrqrrm0ce+Qt/4r/+trrVZ+ra/Qxe958fqGgAAAADmA/J8gzze0C7bVxz4tsWpp55SDR5OPdUNIL79zb0tHizwIOLYMR44HK8GCzKAkMGDDBw4ZvQA4nd2PkLPPXeArv/lX6jqms9/4Ul68c/+oq61Wbb0LXTxRavqGgAAAADmAzJ4YKrbFPVAon7mobp90R5IuAHES3/xJ24A0b7icPxE7+ChO4DQVyD6BxC//cBD9IwbQHz6hl+s6ppHPv9H9MI3egcQy8/+Ebrk4p+oawAAAACYD9gDiPbAoRuf0q7/1befqgYQ7QFDe4DAAwlr4CCDBh43yOCB+Y/3/z4988x+unHTdbXT5aFH9tDXX/zzutbm7cv+J5q55Ly6BgAAAICTgT6Xy8ChPYjoDiZ40NAdTNSDiOlT6P8H91fv+ojh8woAAAAASUVORK5CYII=;" vertex="1" parent="1">
          <mxGeometry x="730" y="199.5" width="528" height="432" as="geometry" />
        </mxCell>
        <mxCell id="0TGblvGgAYBKJKgvkOkP-5" style="edgeStyle=orthogonalEdgeStyle;rounded=0;orthogonalLoop=1;jettySize=auto;html=1;exitX=0.5;exitY=1;exitDx=0;exitDy=0;entryX=0;entryY=0.5;entryDx=0;entryDy=0;fillColor=#f8cecc;strokeColor=#FF0000;strokeWidth=5;" edge="1" parent="1" source="0TGblvGgAYBKJKgvkOkP-3" target="0TGblvGgAYBKJKgvkOkP-4">
          <mxGeometry relative="1" as="geometry" />
        </mxCell>
        <mxCell id="0TGblvGgAYBKJKgvkOkP-6" value="Double-Click" style="edgeLabel;html=1;align=center;verticalAlign=middle;resizable=0;points=[];fontSize=14;" vertex="1" connectable="0" parent="0TGblvGgAYBKJKgvkOkP-5">
          <mxGeometry x="-0.8927" y="-1" relative="1" as="geometry">
            <mxPoint x="1" y="-3" as="offset" />
          </mxGeometry>
        </mxCell>
        <mxCell id="0TGblvGgAYBKJKgvkOkP-3" value="" style="rounded=0;whiteSpace=wrap;html=1;fillColor=none;strokeWidth=5;strokeColor=#FF0000;" vertex="1" parent="1">
          <mxGeometry x="150" y="290" width="80" height="40" as="geometry" />
        </mxCell>
        <mxCell id="0TGblvGgAYBKJKgvkOkP-4" value="" style="rounded=0;whiteSpace=wrap;html=1;fillColor=none;strokeWidth=5;strokeColor=#FF0000;" vertex="1" parent="1">
          <mxGeometry x="720" y="190" width="550" height="450" as="geometry" />
        </mxCell>
      </root>
    </mxGraphModel>
  </diagram>
</mxfile>
